<?xml version="1.0" encoding="UTF-8" standalone="no"?>
<svg
   xmlns:dc="http://purl.org/dc/elements/1.1/"
   xmlns:cc="http://creativecommons.org/ns#"
   xmlns:rdf="http://www.w3.org/1999/02/22-rdf-syntax-ns#"
   xmlns:svg="http://www.w3.org/2000/svg"
   xmlns="http://www.w3.org/2000/svg"
   xmlns:sodipodi="http://sodipodi.sourceforge.net/DTD/sodipodi-0.dtd"
   xmlns:inkscape="http://www.inkscape.org/namespaces/inkscape"
   width="113.48589mm"
   height="15.736053mm"
   viewBox="0 0 113.4859 15.736053"
   version="1.1"
   id="svg8"
   inkscape:version="1.0.2 (e86c8708, 2021-01-15)"
   sodipodi:docname="logo.svg"
   inkscape:export-xdpi="168.77464"
   inkscape:export-ydpi="168.77464"
   inkscape:export-filename="logo.png">
  <defs
     id="defs2">
    <clipPath
       clipPathUnits="userSpaceOnUse"
       id="clipPath849">
      <rect
         style="fill:none;stroke:#000000;stroke-width:0.358002;stroke-miterlimit:4;stroke-dasharray:none"
         id="rect851"
         width="57.804474"
         height="76.351196"
         x="32.322227"
         y="61.232143" />
    </clipPath>
    <clipPath
       clipPathUnits="userSpaceOnUse"
       id="clipPath859">
      <rect
         style="fill:none;fill-opacity:1;stroke:#000000;stroke-width:0.352777;stroke-miterlimit:4;stroke-dasharray:none;stroke-opacity:1"
         id="rect861"
         width="57.058426"
         height="72.259254"
         x="40.325314"
         y="51.641022" />
    </clipPath>
    <linearGradient
       id="linearGradient8385">
      <stop
         id="stop8387"
         style="stop-color:#0d0079;stop-opacity:1;"
         offset="0" />
      <stop
         id="stop8389"
         style="stop-color:#ffffff;stop-opacity:1"
         offset="1" />
    </linearGradient>
    <clipPath
       id="p2c32932dbd">
      <path
         d="m 178.7904,92.16 c 0,-11.3762 -2.24086,-22.641781 -6.59435,-33.152019 C 167.84257,48.497743 161.46113,38.947245 153.41694,30.903057 145.37275,22.858869 135.82226,16.47743 125.31202,12.123947 114.80178,7.770463 103.5362,5.5296 92.16,5.5296 80.7838,5.5296 69.518219,7.770463 59.007981,12.123947 48.497743,16.47743 38.947245,22.858869 30.903057,30.903057 22.858869,38.947245 16.47743,48.497743 12.123947,59.007981 7.770463,69.518219 5.5296,80.7838 5.5296,92.16 c 0,11.3762 2.240863,22.64178 6.594347,33.15202 4.353483,10.51024 10.734922,20.06073 18.77911,28.10492 8.044188,8.04419 17.594686,14.42563 28.104924,18.77911 10.510238,4.35349 21.775819,6.59435 33.152019,6.59435 11.3762,0 22.64178,-2.24086 33.15202,-6.59435 10.51024,-4.35348 20.06073,-10.73492 28.10492,-18.77911 8.04419,-8.04419 14.42563,-17.59468 18.77911,-28.10492 4.35349,-10.51024 6.59435,-21.77582 6.59435,-33.15202 m -86.6304,0 c 0,0 0,0 0,0 0,0 0,0 0,0 0,0 0,0 0,0 0,0 0,0 0,0 0,0 0,0 0,0 0,0 0,0 0,0 0,0 0,0 0,0 0,0 0,0 0,0 0,0 0,0 0,0 0,0 0,0 0,0 0,0 0,0 0,0 0,0 0,0 0,0 0,0 0,0 0,0 0,0 0,0 0,0 0,0 0,0 0,0 0,0 0,0 0,0 m 86.6304,0 z"
         id="path1715" />
    </clipPath>
    <clipPath
       id="clipPath2297">
      <path
         d="m 178.7904,92.16 c 0,-11.3762 -2.24086,-22.641781 -6.59435,-33.152019 C 167.84257,48.497743 161.46113,38.947245 153.41694,30.903057 145.37275,22.858869 135.82226,16.47743 125.31202,12.123947 114.80178,7.770463 103.5362,5.5296 92.16,5.5296 80.7838,5.5296 69.518219,7.770463 59.007981,12.123947 48.497743,16.47743 38.947245,22.858869 30.903057,30.903057 22.858869,38.947245 16.47743,48.497743 12.123947,59.007981 7.770463,69.518219 5.5296,80.7838 5.5296,92.16 c 0,11.3762 2.240863,22.64178 6.594347,33.15202 4.353483,10.51024 10.734922,20.06073 18.77911,28.10492 8.044188,8.04419 17.594686,14.42563 28.104924,18.77911 10.510238,4.35349 21.775819,6.59435 33.152019,6.59435 11.3762,0 22.64178,-2.24086 33.15202,-6.59435 10.51024,-4.35348 20.06073,-10.73492 28.10492,-18.77911 8.04419,-8.04419 14.42563,-17.59468 18.77911,-28.10492 4.35349,-10.51024 6.59435,-21.77582 6.59435,-33.15202 m -86.6304,0 c 0,0 0,0 0,0 0,0 0,0 0,0 0,0 0,0 0,0 0,0 0,0 0,0 0,0 0,0 0,0 0,0 0,0 0,0 0,0 0,0 0,0 0,0 0,0 0,0 0,0 0,0 0,0 0,0 0,0 0,0 0,0 0,0 0,0 0,0 0,0 0,0 0,0 0,0 0,0 0,0 0,0 0,0 0,0 0,0 0,0 0,0 0,0 0,0 m 86.6304,0 z"
         id="path2295" />
    </clipPath>
    <clipPath
       id="clipPath2301">
      <path
         d="m 178.7904,92.16 c 0,-11.3762 -2.24086,-22.641781 -6.59435,-33.152019 C 167.84257,48.497743 161.46113,38.947245 153.41694,30.903057 145.37275,22.858869 135.82226,16.47743 125.31202,12.123947 114.80178,7.770463 103.5362,5.5296 92.16,5.5296 80.7838,5.5296 69.518219,7.770463 59.007981,12.123947 48.497743,16.47743 38.947245,22.858869 30.903057,30.903057 22.858869,38.947245 16.47743,48.497743 12.123947,59.007981 7.770463,69.518219 5.5296,80.7838 5.5296,92.16 c 0,11.3762 2.240863,22.64178 6.594347,33.15202 4.353483,10.51024 10.734922,20.06073 18.77911,28.10492 8.044188,8.04419 17.594686,14.42563 28.104924,18.77911 10.510238,4.35349 21.775819,6.59435 33.152019,6.59435 11.3762,0 22.64178,-2.24086 33.15202,-6.59435 10.51024,-4.35348 20.06073,-10.73492 28.10492,-18.77911 8.04419,-8.04419 14.42563,-17.59468 18.77911,-28.10492 4.35349,-10.51024 6.59435,-21.77582 6.59435,-33.15202 m -86.6304,0 c 0,0 0,0 0,0 0,0 0,0 0,0 0,0 0,0 0,0 0,0 0,0 0,0 0,0 0,0 0,0 0,0 0,0 0,0 0,0 0,0 0,0 0,0 0,0 0,0 0,0 0,0 0,0 0,0 0,0 0,0 0,0 0,0 0,0 0,0 0,0 0,0 0,0 0,0 0,0 0,0 0,0 0,0 0,0 0,0 0,0 0,0 0,0 0,0 m 86.6304,0 z"
         id="path2299" />
    </clipPath>
    <clipPath
       id="clipPath2305">
      <path
         d="m 178.7904,92.16 c 0,-11.3762 -2.24086,-22.641781 -6.59435,-33.152019 C 167.84257,48.497743 161.46113,38.947245 153.41694,30.903057 145.37275,22.858869 135.82226,16.47743 125.31202,12.123947 114.80178,7.770463 103.5362,5.5296 92.16,5.5296 80.7838,5.5296 69.518219,7.770463 59.007981,12.123947 48.497743,16.47743 38.947245,22.858869 30.903057,30.903057 22.858869,38.947245 16.47743,48.497743 12.123947,59.007981 7.770463,69.518219 5.5296,80.7838 5.5296,92.16 c 0,11.3762 2.240863,22.64178 6.594347,33.15202 4.353483,10.51024 10.734922,20.06073 18.77911,28.10492 8.044188,8.04419 17.594686,14.42563 28.104924,18.77911 10.510238,4.35349 21.775819,6.59435 33.152019,6.59435 11.3762,0 22.64178,-2.24086 33.15202,-6.59435 10.51024,-4.35348 20.06073,-10.73492 28.10492,-18.77911 8.04419,-8.04419 14.42563,-17.59468 18.77911,-28.10492 4.35349,-10.51024 6.59435,-21.77582 6.59435,-33.15202 m -86.6304,0 c 0,0 0,0 0,0 0,0 0,0 0,0 0,0 0,0 0,0 0,0 0,0 0,0 0,0 0,0 0,0 0,0 0,0 0,0 0,0 0,0 0,0 0,0 0,0 0,0 0,0 0,0 0,0 0,0 0,0 0,0 0,0 0,0 0,0 0,0 0,0 0,0 0,0 0,0 0,0 0,0 0,0 0,0 0,0 0,0 0,0 0,0 0,0 0,0 m 86.6304,0 z"
         id="path2303" />
    </clipPath>
    <clipPath
       id="clipPath2309">
      <path
         d="m 178.7904,92.16 c 0,-11.3762 -2.24086,-22.641781 -6.59435,-33.152019 C 167.84257,48.497743 161.46113,38.947245 153.41694,30.903057 145.37275,22.858869 135.82226,16.47743 125.31202,12.123947 114.80178,7.770463 103.5362,5.5296 92.16,5.5296 80.7838,5.5296 69.518219,7.770463 59.007981,12.123947 48.497743,16.47743 38.947245,22.858869 30.903057,30.903057 22.858869,38.947245 16.47743,48.497743 12.123947,59.007981 7.770463,69.518219 5.5296,80.7838 5.5296,92.16 c 0,11.3762 2.240863,22.64178 6.594347,33.15202 4.353483,10.51024 10.734922,20.06073 18.77911,28.10492 8.044188,8.04419 17.594686,14.42563 28.104924,18.77911 10.510238,4.35349 21.775819,6.59435 33.152019,6.59435 11.3762,0 22.64178,-2.24086 33.15202,-6.59435 10.51024,-4.35348 20.06073,-10.73492 28.10492,-18.77911 8.04419,-8.04419 14.42563,-17.59468 18.77911,-28.10492 4.35349,-10.51024 6.59435,-21.77582 6.59435,-33.15202 m -86.6304,0 c 0,0 0,0 0,0 0,0 0,0 0,0 0,0 0,0 0,0 0,0 0,0 0,0 0,0 0,0 0,0 0,0 0,0 0,0 0,0 0,0 0,0 0,0 0,0 0,0 0,0 0,0 0,0 0,0 0,0 0,0 0,0 0,0 0,0 0,0 0,0 0,0 0,0 0,0 0,0 0,0 0,0 0,0 0,0 0,0 0,0 0,0 0,0 0,0 m 86.6304,0 z"
         id="path2307" />
    </clipPath>
    <clipPath
       id="clipPath2313">
      <path
         d="m 178.7904,92.16 c 0,-11.3762 -2.24086,-22.641781 -6.59435,-33.152019 C 167.84257,48.497743 161.46113,38.947245 153.41694,30.903057 145.37275,22.858869 135.82226,16.47743 125.31202,12.123947 114.80178,7.770463 103.5362,5.5296 92.16,5.5296 80.7838,5.5296 69.518219,7.770463 59.007981,12.123947 48.497743,16.47743 38.947245,22.858869 30.903057,30.903057 22.858869,38.947245 16.47743,48.497743 12.123947,59.007981 7.770463,69.518219 5.5296,80.7838 5.5296,92.16 c 0,11.3762 2.240863,22.64178 6.594347,33.15202 4.353483,10.51024 10.734922,20.06073 18.77911,28.10492 8.044188,8.04419 17.594686,14.42563 28.104924,18.77911 10.510238,4.35349 21.775819,6.59435 33.152019,6.59435 11.3762,0 22.64178,-2.24086 33.15202,-6.59435 10.51024,-4.35348 20.06073,-10.73492 28.10492,-18.77911 8.04419,-8.04419 14.42563,-17.59468 18.77911,-28.10492 4.35349,-10.51024 6.59435,-21.77582 6.59435,-33.15202 m -86.6304,0 c 0,0 0,0 0,0 0,0 0,0 0,0 0,0 0,0 0,0 0,0 0,0 0,0 0,0 0,0 0,0 0,0 0,0 0,0 0,0 0,0 0,0 0,0 0,0 0,0 0,0 0,0 0,0 0,0 0,0 0,0 0,0 0,0 0,0 0,0 0,0 0,0 0,0 0,0 0,0 0,0 0,0 0,0 0,0 0,0 0,0 0,0 0,0 0,0 m 86.6304,0 z"
         id="path2311" />
    </clipPath>
    <clipPath
       id="clipPath2317">
      <path
         d="m 178.7904,92.16 c 0,-11.3762 -2.24086,-22.641781 -6.59435,-33.152019 C 167.84257,48.497743 161.46113,38.947245 153.41694,30.903057 145.37275,22.858869 135.82226,16.47743 125.31202,12.123947 114.80178,7.770463 103.5362,5.5296 92.16,5.5296 80.7838,5.5296 69.518219,7.770463 59.007981,12.123947 48.497743,16.47743 38.947245,22.858869 30.903057,30.903057 22.858869,38.947245 16.47743,48.497743 12.123947,59.007981 7.770463,69.518219 5.5296,80.7838 5.5296,92.16 c 0,11.3762 2.240863,22.64178 6.594347,33.15202 4.353483,10.51024 10.734922,20.06073 18.77911,28.10492 8.044188,8.04419 17.594686,14.42563 28.104924,18.77911 10.510238,4.35349 21.775819,6.59435 33.152019,6.59435 11.3762,0 22.64178,-2.24086 33.15202,-6.59435 10.51024,-4.35348 20.06073,-10.73492 28.10492,-18.77911 8.04419,-8.04419 14.42563,-17.59468 18.77911,-28.10492 4.35349,-10.51024 6.59435,-21.77582 6.59435,-33.15202 m -86.6304,0 c 0,0 0,0 0,0 0,0 0,0 0,0 0,0 0,0 0,0 0,0 0,0 0,0 0,0 0,0 0,0 0,0 0,0 0,0 0,0 0,0 0,0 0,0 0,0 0,0 0,0 0,0 0,0 0,0 0,0 0,0 0,0 0,0 0,0 0,0 0,0 0,0 0,0 0,0 0,0 0,0 0,0 0,0 0,0 0,0 0,0 0,0 0,0 0,0 m 86.6304,0 z"
         id="path2315" />
    </clipPath>
    <clipPath
       id="clipPath2321">
      <path
         d="m 178.7904,92.16 c 0,-11.3762 -2.24086,-22.641781 -6.59435,-33.152019 C 167.84257,48.497743 161.46113,38.947245 153.41694,30.903057 145.37275,22.858869 135.82226,16.47743 125.31202,12.123947 114.80178,7.770463 103.5362,5.5296 92.16,5.5296 80.7838,5.5296 69.518219,7.770463 59.007981,12.123947 48.497743,16.47743 38.947245,22.858869 30.903057,30.903057 22.858869,38.947245 16.47743,48.497743 12.123947,59.007981 7.770463,69.518219 5.5296,80.7838 5.5296,92.16 c 0,11.3762 2.240863,22.64178 6.594347,33.15202 4.353483,10.51024 10.734922,20.06073 18.77911,28.10492 8.044188,8.04419 17.594686,14.42563 28.104924,18.77911 10.510238,4.35349 21.775819,6.59435 33.152019,6.59435 11.3762,0 22.64178,-2.24086 33.15202,-6.59435 10.51024,-4.35348 20.06073,-10.73492 28.10492,-18.77911 8.04419,-8.04419 14.42563,-17.59468 18.77911,-28.10492 4.35349,-10.51024 6.59435,-21.77582 6.59435,-33.15202 m -86.6304,0 c 0,0 0,0 0,0 0,0 0,0 0,0 0,0 0,0 0,0 0,0 0,0 0,0 0,0 0,0 0,0 0,0 0,0 0,0 0,0 0,0 0,0 0,0 0,0 0,0 0,0 0,0 0,0 0,0 0,0 0,0 0,0 0,0 0,0 0,0 0,0 0,0 0,0 0,0 0,0 0,0 0,0 0,0 0,0 0,0 0,0 0,0 0,0 0,0 m 86.6304,0 z"
         id="path2319" />
    </clipPath>
    <clipPath
       id="clipPath2325">
      <path
         d="m 178.7904,92.16 c 0,-11.3762 -2.24086,-22.641781 -6.59435,-33.152019 C 167.84257,48.497743 161.46113,38.947245 153.41694,30.903057 145.37275,22.858869 135.82226,16.47743 125.31202,12.123947 114.80178,7.770463 103.5362,5.5296 92.16,5.5296 80.7838,5.5296 69.518219,7.770463 59.007981,12.123947 48.497743,16.47743 38.947245,22.858869 30.903057,30.903057 22.858869,38.947245 16.47743,48.497743 12.123947,59.007981 7.770463,69.518219 5.5296,80.7838 5.5296,92.16 c 0,11.3762 2.240863,22.64178 6.594347,33.15202 4.353483,10.51024 10.734922,20.06073 18.77911,28.10492 8.044188,8.04419 17.594686,14.42563 28.104924,18.77911 10.510238,4.35349 21.775819,6.59435 33.152019,6.59435 11.3762,0 22.64178,-2.24086 33.15202,-6.59435 10.51024,-4.35348 20.06073,-10.73492 28.10492,-18.77911 8.04419,-8.04419 14.42563,-17.59468 18.77911,-28.10492 4.35349,-10.51024 6.59435,-21.77582 6.59435,-33.15202 m -86.6304,0 c 0,0 0,0 0,0 0,0 0,0 0,0 0,0 0,0 0,0 0,0 0,0 0,0 0,0 0,0 0,0 0,0 0,0 0,0 0,0 0,0 0,0 0,0 0,0 0,0 0,0 0,0 0,0 0,0 0,0 0,0 0,0 0,0 0,0 0,0 0,0 0,0 0,0 0,0 0,0 0,0 0,0 0,0 0,0 0,0 0,0 0,0 0,0 0,0 m 86.6304,0 z"
         id="path2323" />
    </clipPath>
    <clipPath
       id="clipPath2329">
      <path
         d="m 178.7904,92.16 c 0,-11.3762 -2.24086,-22.641781 -6.59435,-33.152019 C 167.84257,48.497743 161.46113,38.947245 153.41694,30.903057 145.37275,22.858869 135.82226,16.47743 125.31202,12.123947 114.80178,7.770463 103.5362,5.5296 92.16,5.5296 80.7838,5.5296 69.518219,7.770463 59.007981,12.123947 48.497743,16.47743 38.947245,22.858869 30.903057,30.903057 22.858869,38.947245 16.47743,48.497743 12.123947,59.007981 7.770463,69.518219 5.5296,80.7838 5.5296,92.16 c 0,11.3762 2.240863,22.64178 6.594347,33.15202 4.353483,10.51024 10.734922,20.06073 18.77911,28.10492 8.044188,8.04419 17.594686,14.42563 28.104924,18.77911 10.510238,4.35349 21.775819,6.59435 33.152019,6.59435 11.3762,0 22.64178,-2.24086 33.15202,-6.59435 10.51024,-4.35348 20.06073,-10.73492 28.10492,-18.77911 8.04419,-8.04419 14.42563,-17.59468 18.77911,-28.10492 4.35349,-10.51024 6.59435,-21.77582 6.59435,-33.15202 m -86.6304,0 c 0,0 0,0 0,0 0,0 0,0 0,0 0,0 0,0 0,0 0,0 0,0 0,0 0,0 0,0 0,0 0,0 0,0 0,0 0,0 0,0 0,0 0,0 0,0 0,0 0,0 0,0 0,0 0,0 0,0 0,0 0,0 0,0 0,0 0,0 0,0 0,0 0,0 0,0 0,0 0,0 0,0 0,0 0,0 0,0 0,0 0,0 0,0 0,0 m 86.6304,0 z"
         id="path2327" />
    </clipPath>
    <clipPath
       id="clipPath2333">
      <path
         d="m 178.7904,92.16 c 0,-11.3762 -2.24086,-22.641781 -6.59435,-33.152019 C 167.84257,48.497743 161.46113,38.947245 153.41694,30.903057 145.37275,22.858869 135.82226,16.47743 125.31202,12.123947 114.80178,7.770463 103.5362,5.5296 92.16,5.5296 80.7838,5.5296 69.518219,7.770463 59.007981,12.123947 48.497743,16.47743 38.947245,22.858869 30.903057,30.903057 22.858869,38.947245 16.47743,48.497743 12.123947,59.007981 7.770463,69.518219 5.5296,80.7838 5.5296,92.16 c 0,11.3762 2.240863,22.64178 6.594347,33.15202 4.353483,10.51024 10.734922,20.06073 18.77911,28.10492 8.044188,8.04419 17.594686,14.42563 28.104924,18.77911 10.510238,4.35349 21.775819,6.59435 33.152019,6.59435 11.3762,0 22.64178,-2.24086 33.15202,-6.59435 10.51024,-4.35348 20.06073,-10.73492 28.10492,-18.77911 8.04419,-8.04419 14.42563,-17.59468 18.77911,-28.10492 4.35349,-10.51024 6.59435,-21.77582 6.59435,-33.15202 m -86.6304,0 c 0,0 0,0 0,0 0,0 0,0 0,0 0,0 0,0 0,0 0,0 0,0 0,0 0,0 0,0 0,0 0,0 0,0 0,0 0,0 0,0 0,0 0,0 0,0 0,0 0,0 0,0 0,0 0,0 0,0 0,0 0,0 0,0 0,0 0,0 0,0 0,0 0,0 0,0 0,0 0,0 0,0 0,0 0,0 0,0 0,0 0,0 0,0 0,0 m 86.6304,0 z"
         id="path2331" />
    </clipPath>
    <clipPath
       id="clipPath2337">
      <path
         d="m 178.7904,92.16 c 0,-11.3762 -2.24086,-22.641781 -6.59435,-33.152019 C 167.84257,48.497743 161.46113,38.947245 153.41694,30.903057 145.37275,22.858869 135.82226,16.47743 125.31202,12.123947 114.80178,7.770463 103.5362,5.5296 92.16,5.5296 80.7838,5.5296 69.518219,7.770463 59.007981,12.123947 48.497743,16.47743 38.947245,22.858869 30.903057,30.903057 22.858869,38.947245 16.47743,48.497743 12.123947,59.007981 7.770463,69.518219 5.5296,80.7838 5.5296,92.16 c 0,11.3762 2.240863,22.64178 6.594347,33.15202 4.353483,10.51024 10.734922,20.06073 18.77911,28.10492 8.044188,8.04419 17.594686,14.42563 28.104924,18.77911 10.510238,4.35349 21.775819,6.59435 33.152019,6.59435 11.3762,0 22.64178,-2.24086 33.15202,-6.59435 10.51024,-4.35348 20.06073,-10.73492 28.10492,-18.77911 8.04419,-8.04419 14.42563,-17.59468 18.77911,-28.10492 4.35349,-10.51024 6.59435,-21.77582 6.59435,-33.15202 m -86.6304,0 c 0,0 0,0 0,0 0,0 0,0 0,0 0,0 0,0 0,0 0,0 0,0 0,0 0,0 0,0 0,0 0,0 0,0 0,0 0,0 0,0 0,0 0,0 0,0 0,0 0,0 0,0 0,0 0,0 0,0 0,0 0,0 0,0 0,0 0,0 0,0 0,0 0,0 0,0 0,0 0,0 0,0 0,0 0,0 0,0 0,0 0,0 0,0 0,0 m 86.6304,0 z"
         id="path2335" />
    </clipPath>
    <clipPath
       id="clipPath2341">
      <path
         d="m 178.7904,92.16 c 0,-11.3762 -2.24086,-22.641781 -6.59435,-33.152019 C 167.84257,48.497743 161.46113,38.947245 153.41694,30.903057 145.37275,22.858869 135.82226,16.47743 125.31202,12.123947 114.80178,7.770463 103.5362,5.5296 92.16,5.5296 80.7838,5.5296 69.518219,7.770463 59.007981,12.123947 48.497743,16.47743 38.947245,22.858869 30.903057,30.903057 22.858869,38.947245 16.47743,48.497743 12.123947,59.007981 7.770463,69.518219 5.5296,80.7838 5.5296,92.16 c 0,11.3762 2.240863,22.64178 6.594347,33.15202 4.353483,10.51024 10.734922,20.06073 18.77911,28.10492 8.044188,8.04419 17.594686,14.42563 28.104924,18.77911 10.510238,4.35349 21.775819,6.59435 33.152019,6.59435 11.3762,0 22.64178,-2.24086 33.15202,-6.59435 10.51024,-4.35348 20.06073,-10.73492 28.10492,-18.77911 8.04419,-8.04419 14.42563,-17.59468 18.77911,-28.10492 4.35349,-10.51024 6.59435,-21.77582 6.59435,-33.15202 m -86.6304,0 c 0,0 0,0 0,0 0,0 0,0 0,0 0,0 0,0 0,0 0,0 0,0 0,0 0,0 0,0 0,0 0,0 0,0 0,0 0,0 0,0 0,0 0,0 0,0 0,0 0,0 0,0 0,0 0,0 0,0 0,0 0,0 0,0 0,0 0,0 0,0 0,0 0,0 0,0 0,0 0,0 0,0 0,0 0,0 0,0 0,0 0,0 0,0 0,0 m 86.6304,0 z"
         id="path2339" />
    </clipPath>
    <clipPath
       id="clipPath2345">
      <path
         d="m 178.7904,92.16 c 0,-11.3762 -2.24086,-22.641781 -6.59435,-33.152019 C 167.84257,48.497743 161.46113,38.947245 153.41694,30.903057 145.37275,22.858869 135.82226,16.47743 125.31202,12.123947 114.80178,7.770463 103.5362,5.5296 92.16,5.5296 80.7838,5.5296 69.518219,7.770463 59.007981,12.123947 48.497743,16.47743 38.947245,22.858869 30.903057,30.903057 22.858869,38.947245 16.47743,48.497743 12.123947,59.007981 7.770463,69.518219 5.5296,80.7838 5.5296,92.16 c 0,11.3762 2.240863,22.64178 6.594347,33.15202 4.353483,10.51024 10.734922,20.06073 18.77911,28.10492 8.044188,8.04419 17.594686,14.42563 28.104924,18.77911 10.510238,4.35349 21.775819,6.59435 33.152019,6.59435 11.3762,0 22.64178,-2.24086 33.15202,-6.59435 10.51024,-4.35348 20.06073,-10.73492 28.10492,-18.77911 8.04419,-8.04419 14.42563,-17.59468 18.77911,-28.10492 4.35349,-10.51024 6.59435,-21.77582 6.59435,-33.15202 m -86.6304,0 c 0,0 0,0 0,0 0,0 0,0 0,0 0,0 0,0 0,0 0,0 0,0 0,0 0,0 0,0 0,0 0,0 0,0 0,0 0,0 0,0 0,0 0,0 0,0 0,0 0,0 0,0 0,0 0,0 0,0 0,0 0,0 0,0 0,0 0,0 0,0 0,0 0,0 0,0 0,0 0,0 0,0 0,0 0,0 0,0 0,0 0,0 0,0 0,0 m 86.6304,0 z"
         id="path2343" />
    </clipPath>
    <clipPath
       id="clipPath2349">
      <path
         d="m 178.7904,92.16 c 0,-11.3762 -2.24086,-22.641781 -6.59435,-33.152019 C 167.84257,48.497743 161.46113,38.947245 153.41694,30.903057 145.37275,22.858869 135.82226,16.47743 125.31202,12.123947 114.80178,7.770463 103.5362,5.5296 92.16,5.5296 80.7838,5.5296 69.518219,7.770463 59.007981,12.123947 48.497743,16.47743 38.947245,22.858869 30.903057,30.903057 22.858869,38.947245 16.47743,48.497743 12.123947,59.007981 7.770463,69.518219 5.5296,80.7838 5.5296,92.16 c 0,11.3762 2.240863,22.64178 6.594347,33.15202 4.353483,10.51024 10.734922,20.06073 18.77911,28.10492 8.044188,8.04419 17.594686,14.42563 28.104924,18.77911 10.510238,4.35349 21.775819,6.59435 33.152019,6.59435 11.3762,0 22.64178,-2.24086 33.15202,-6.59435 10.51024,-4.35348 20.06073,-10.73492 28.10492,-18.77911 8.04419,-8.04419 14.42563,-17.59468 18.77911,-28.10492 4.35349,-10.51024 6.59435,-21.77582 6.59435,-33.15202 m -86.6304,0 c 0,0 0,0 0,0 0,0 0,0 0,0 0,0 0,0 0,0 0,0 0,0 0,0 0,0 0,0 0,0 0,0 0,0 0,0 0,0 0,0 0,0 0,0 0,0 0,0 0,0 0,0 0,0 0,0 0,0 0,0 0,0 0,0 0,0 0,0 0,0 0,0 0,0 0,0 0,0 0,0 0,0 0,0 0,0 0,0 0,0 0,0 0,0 0,0 m 86.6304,0 z"
         id="path2347" />
    </clipPath>
    <clipPath
       id="clipPath2353">
      <path
         d="m 178.7904,92.16 c 0,-11.3762 -2.24086,-22.641781 -6.59435,-33.152019 C 167.84257,48.497743 161.46113,38.947245 153.41694,30.903057 145.37275,22.858869 135.82226,16.47743 125.31202,12.123947 114.80178,7.770463 103.5362,5.5296 92.16,5.5296 80.7838,5.5296 69.518219,7.770463 59.007981,12.123947 48.497743,16.47743 38.947245,22.858869 30.903057,30.903057 22.858869,38.947245 16.47743,48.497743 12.123947,59.007981 7.770463,69.518219 5.5296,80.7838 5.5296,92.16 c 0,11.3762 2.240863,22.64178 6.594347,33.15202 4.353483,10.51024 10.734922,20.06073 18.77911,28.10492 8.044188,8.04419 17.594686,14.42563 28.104924,18.77911 10.510238,4.35349 21.775819,6.59435 33.152019,6.59435 11.3762,0 22.64178,-2.24086 33.15202,-6.59435 10.51024,-4.35348 20.06073,-10.73492 28.10492,-18.77911 8.04419,-8.04419 14.42563,-17.59468 18.77911,-28.10492 4.35349,-10.51024 6.59435,-21.77582 6.59435,-33.15202 m -86.6304,0 c 0,0 0,0 0,0 0,0 0,0 0,0 0,0 0,0 0,0 0,0 0,0 0,0 0,0 0,0 0,0 0,0 0,0 0,0 0,0 0,0 0,0 0,0 0,0 0,0 0,0 0,0 0,0 0,0 0,0 0,0 0,0 0,0 0,0 0,0 0,0 0,0 0,0 0,0 0,0 0,0 0,0 0,0 0,0 0,0 0,0 0,0 0,0 0,0 m 86.6304,0 z"
         id="path2351" />
    </clipPath>
  </defs>
  <sodipodi:namedview
     id="base"
     pagecolor="#ffffff"
     bordercolor="#666666"
     borderopacity="1.0"
     inkscape:pageopacity="0.0"
     inkscape:pageshadow="2"
     inkscape:zoom="1.7455823"
     inkscape:cx="177.74364"
     inkscape:cy="46.189207"
     inkscape:document-units="mm"
     inkscape:current-layer="layer1"
     inkscape:document-rotation="0"
     showgrid="false"
     inkscape:window-width="1440"
     inkscape:window-height="786"
     inkscape:window-x="1"
     inkscape:window-y="25"
     inkscape:window-maximized="0"
     fit-margin-top="0"
     fit-margin-left="0"
     fit-margin-right="0"
     fit-margin-bottom="0" />
  <metadata
     id="metadata5">
    <rdf:RDF>
      <cc:Work
         rdf:about="">
        <dc:format>image/svg+xml</dc:format>
        <dc:type
           rdf:resource="http://purl.org/dc/dcmitype/StillImage" />
        <dc:title></dc:title>
      </cc:Work>
    </rdf:RDF>
  </metadata>
  <g
     inkscape:label="Layer 1"
     inkscape:groupmode="layer"
     id="layer1"
     transform="translate(-106.05763,-90.413406)">
    <rect
       style="fill:#ffffff;fill-opacity:1;stroke:none;stroke-width:0.144766;stroke-miterlimit:4;stroke-dasharray:none;stroke-opacity:1"
       id="rect2645"
       width="113.48589"
       height="15.736053"
       x="106.05763"
       y="90.413406"
       ry="2.9265988" />
    <text
       xml:space="preserve"
       style="font-size:14.9122px;line-height:1.25;font-family:'Clarendon BT';-inkscape-font-specification:'Clarendon BT';fill:#734f96;fill-opacity:1;stroke-width:0.372806"
       x="108.75404"
       y="101.68182"
       id="text3866"><tspan
         sodipodi:role="line"
         id="tspan3864"
         x="108.75404"
         y="101.68182"
         style="fill:#734f96;fill-opacity:1;stroke-width:0.372806">pyplot</tspan></text>
    <rect
       style="fill:#734f96;fill-opacity:1;stroke:none;stroke-width:0.144766;stroke-miterlimit:4;stroke-dasharray:none;stroke-opacity:1"
       id="rect3876"
       width="62.077888"
       height="15.736053"
       x="157.46564"
       y="90.413406"
       ry="2.9265988" />
    <g
       id="figure_1"
       style="stroke-width:10.9782;stroke-linecap:butt;stroke-linejoin:round"
       transform="matrix(0.03295001,0,0,0.03133925,142.59244,95.259876)">
      <g
         id="patch_1"
         style="stroke-width:10.9782">
        <path
           d="M 0,184.32 H 184.32 V 0 H 0 Z"
           style="opacity:0;fill:none;stroke-width:10.9782"
           id="path1642" />
      </g>
      <g
         id="axes_1"
         style="stroke-width:10.9782">
        <g
           id="patch_2"
           style="stroke-width:10.9782">
          <path
             d="m 178.7904,92.16 c 0,-11.3762 -2.24086,-22.641781 -6.59435,-33.152019 C 167.84257,48.497743 161.46113,38.947245 153.41694,30.903057 145.37275,22.858869 135.82226,16.47743 125.31202,12.123947 114.80178,7.770463 103.5362,5.5296 92.16,5.5296 80.7838,5.5296 69.518219,7.770463 59.007981,12.123947 48.497743,16.47743 38.947245,22.858869 30.903057,30.903057 22.858869,38.947245 16.47743,48.497743 12.123947,59.007981 7.770463,69.518219 5.5296,80.7838 5.5296,92.16 c 0,11.3762 2.240863,22.64178 6.594347,33.15202 4.353483,10.51024 10.734922,20.06073 18.77911,28.10492 8.044188,8.04419 17.594686,14.42563 28.104924,18.77911 10.510238,4.35349 21.775819,6.59435 33.152019,6.59435 11.3762,0 22.64178,-2.24086 33.15202,-6.59435 10.51024,-4.35348 20.06073,-10.73492 28.10492,-18.77911 8.04419,-8.04419 14.42563,-17.59468 18.77911,-28.10492 4.35349,-10.51024 6.59435,-21.77582 6.59435,-33.15202 m -86.6304,0 c 0,0 0,0 0,0 0,0 0,0 0,0 0,0 0,0 0,0 0,0 0,0 0,0 0,0 0,0 0,0 0,0 0,0 0,0 0,0 0,0 0,0 0,0 0,0 0,0 0,0 0,0 0,0 0,0 0,0 0,0 0,0 0,0 0,0 0,0 0,0 0,0 0,0 0,0 0,0 0,0 0,0 0,0 0,0 0,0 0,0 0,0 0,0 0,0 m 86.6304,0 z"
             style="fill:#ffffff;stroke-width:10.9782"
             id="path1645" />
        </g>
        <g
           id="patch_3"
           style="stroke-width:10.9782">
          <path
             d="m 92.16,92.16 c 0,0 0,0 0,0 0,0 0,0 0,0 0,0 0,0 0,0 0,0 0,0 0,0 0,0 0,0 0,0 0,0 0,0 0,0 0,0 0,0 0,0 0,0 0,0 0,0 0,0 0,0 0,0 0,0 0,0 0,0 0,0 0,0 0,0 0,0 0,0 0,0 0,0 0,0 0,0 0,0 0,0 0,0 0,0 0,0 0,0 0,0 0,0 0,0 h 92.21325 c 0,12.10933 -2.38528,24.10092 -7.01932,35.28848 -4.63404,11.18757 -11.42673,21.35354 -19.98932,29.91613 -8.56259,8.56259 -18.72856,15.35528 -29.91613,19.98932 -11.18756,4.63404 -23.17915,7.01932 -35.28848,7.01932 -12.109333,0 -24.100918,-2.38528 -35.288482,-7.01932 C 45.683953,172.71989 35.517978,165.9272 26.955387,157.36461 18.392796,148.80202 11.600109,138.63605 6.966068,127.44848 2.332027,116.26092 -0.053248,104.26933 -0.053248,92.16 c 0,-12.109333 2.385275,-24.100918 7.019316,-35.288482 C 11.600109,45.683953 18.392796,35.517978 26.955387,26.955387 35.517978,18.392796 45.683953,11.600109 56.871518,6.966068 68.059082,2.332027 80.050667,-0.053248 92.16,-0.053248 c 12.10933,0 24.10092,2.385275 35.28848,7.019316 11.18757,4.634041 21.35354,11.426728 29.91613,19.989319 8.56259,8.562591 15.35528,18.728566 19.98932,29.916131 4.63404,11.187564 7.01932,23.179149 7.01932,35.288482 z"
             style="fill:#ffffff;stroke-width:10.9782"
             id="path1648" />
        </g>
        <g
           id="matplotlib.axis_1"
           style="stroke-width:10.9782">
          <g
             id="xtick_1"
             style="stroke-width:10.9782">
            <g
               id="line2d_1"
               style="stroke-width:10.9782">
              <path
                 clip-path="url(#p2c32932dbd)"
                 d="m 92.16,92.16 h 86.6304"
                 style="fill:none;stroke:#e6e6e6;stroke-width:3.29346;stroke-linecap:square"
                 id="path1651" />
            </g>
          </g>
          <g
             id="xtick_2"
             style="stroke-width:10.9782">
            <g
               id="line2d_2"
               style="stroke-width:10.9782">
              <path
                 clip-path="url(#p2c32932dbd)"
                 d="M 92.16,92.16 153.41694,30.903057"
                 style="fill:none;stroke:#e6e6e6;stroke-width:3.29346;stroke-linecap:square"
                 id="path1655" />
            </g>
          </g>
          <g
             id="xtick_3"
             style="stroke-width:10.9782">
            <g
               id="line2d_3"
               style="stroke-width:10.9782">
              <path
                 clip-path="url(#p2c32932dbd)"
                 d="M 92.16,92.16 V 5.5296"
                 style="fill:none;stroke:#e6e6e6;stroke-width:3.29346;stroke-linecap:square"
                 id="path1659" />
            </g>
          </g>
          <g
             id="xtick_4"
             style="stroke-width:10.9782">
            <g
               id="line2d_4"
               style="stroke-width:10.9782">
              <path
                 clip-path="url(#p2c32932dbd)"
                 d="M 92.16,92.16 30.903057,30.903057"
                 style="fill:none;stroke:#e6e6e6;stroke-width:3.29346;stroke-linecap:square"
                 id="path1663" />
            </g>
          </g>
          <g
             id="xtick_5"
             style="stroke-width:10.9782">
            <g
               id="line2d_5"
               style="stroke-width:10.9782">
              <path
                 clip-path="url(#p2c32932dbd)"
                 d="M 92.16,92.16 H 5.5296"
                 style="fill:none;stroke:#e6e6e6;stroke-width:3.29346;stroke-linecap:square"
                 id="path1667" />
            </g>
          </g>
          <g
             id="xtick_6"
             style="stroke-width:10.9782">
            <g
               id="line2d_6"
               style="stroke-width:10.9782">
              <path
                 clip-path="url(#p2c32932dbd)"
                 d="M 92.16,92.16 30.903057,153.41694"
                 style="fill:none;stroke:#e6e6e6;stroke-width:3.29346;stroke-linecap:square"
                 id="path1671" />
            </g>
          </g>
          <g
             id="xtick_7"
             style="stroke-width:10.9782">
            <g
               id="line2d_7"
               style="stroke-width:10.9782">
              <path
                 clip-path="url(#p2c32932dbd)"
                 d="m 92.16,92.16 v 86.6304"
                 style="fill:none;stroke:#e6e6e6;stroke-width:3.29346;stroke-linecap:square"
                 id="path1675" />
            </g>
          </g>
          <g
             id="xtick_8"
             style="stroke-width:10.9782">
            <g
               id="line2d_8"
               style="stroke-width:10.9782">
              <path
                 clip-path="url(#p2c32932dbd)"
                 d="m 92.16,92.16 61.25694,61.25694"
                 style="fill:none;stroke:#e6e6e6;stroke-width:3.29346;stroke-linecap:square"
                 id="path1679" />
            </g>
          </g>
        </g>
        <g
           id="matplotlib.axis_2"
           style="stroke-width:10.9782">
          <g
             id="ytick_1"
             style="stroke-width:10.9782">
            <g
               id="line2d_9"
               style="stroke-width:10.9782">
              <path
                 clip-path="url(#p2c32932dbd)"
                 d="m 140.288,92.16 c 0,-6.320111 -1.24492,-12.578767 -3.66353,-18.417788 -2.4186,-5.839021 -5.96384,-11.144854 -10.43283,-15.613847 -4.469,-4.468994 -9.77483,-8.014237 -15.61385,-10.432839 C 104.73877,45.276924 98.480111,44.032 92.16,44.032 c -6.320111,0 -12.578767,1.244924 -18.417788,3.663526 -5.839021,2.418602 -11.144854,5.963845 -15.613847,10.432839 -4.468994,4.468993 -8.014237,9.774826 -10.432839,15.613847 C 45.276924,79.581233 44.032,85.839889 44.032,92.16 c 0,6.320111 1.244924,12.57877 3.663526,18.41779 2.418602,5.83902 5.963845,11.14485 10.432839,15.61385 4.468993,4.46899 9.774826,8.01423 15.613847,10.43283 5.839021,2.41861 12.097677,3.66353 18.417788,3.66353 6.320111,0 12.57877,-1.24492 18.41779,-3.66353 5.83902,-2.4186 11.14485,-5.96384 15.61385,-10.43283 4.46899,-4.469 8.01423,-9.77483 10.43283,-15.61385 2.41861,-5.83902 3.66353,-12.097679 3.66353,-18.41779"
                 style="fill:none;stroke:#e6e6e6;stroke-width:3.29346;stroke-linecap:square"
                 id="path1684" />
            </g>
          </g>
        </g>
        <g
           id="patch_4"
           style="stroke-width:10.9782">
          <path
             clip-path="url(#p2c32932dbd)"
             d="m 92.16,92.16 c 0,0 0,0 0,0 0,0 0,0 0,0 l 18.30898,-5.948948 c 0.31165,0.959148 0.54744,1.941305 0.70521,2.937397 0.15776,0.996092 0.23701,2.003043 0.23701,3.011551 z"
             style="fill:#004cff;fill-opacity:0.6;stroke:#4c4c4c;stroke-width:3.29346;stroke-linejoin:miter"
             id="path1689" />
        </g>
        <g
           id="patch_5"
           style="stroke-width:10.9782">
          <path
             clip-path="url(#p2c32932dbd)"
             d="m 92.16,92.16 c 0,0 0,0 0,0 0,0 0,0 0,0 l 20.29316,-54.070934 c 2.8326,1.063093 5.57729,2.347131 8.20872,3.840252 2.63142,1.493122 5.14145,3.190715 7.5069,5.077099 z"
             style="fill:#ceff29;fill-opacity:0.6;stroke:#4c4c4c;stroke-width:3.29346;stroke-linejoin:miter"
             id="path1692" />
        </g>
        <g
           id="patch_6"
           style="stroke-width:10.9782">
          <path
             clip-path="url(#p2c32932dbd)"
             d="m 92.16,92.16 c 0,0 0,0 0,0 0,0 0,0 0,0 L 42.809502,33.04767 C 47.457536,29.167214 52.547075,25.848481 57.972559,23.160304 63.398043,20.472127 69.1217,18.43322 75.02482,17.085871 Z"
             style="fill:#ff6800;fill-opacity:0.6;stroke:#4c4c4c;stroke-width:3.29346;stroke-linejoin:miter"
             id="path1695" />
        </g>
        <g
           id="patch_7"
           style="stroke-width:10.9782">
          <path
             clip-path="url(#p2c32932dbd)"
             d="m 92.16,92.16 c 0,0 0,0 0,0 0,0 0,0 0,0 l -66.296389,12.03102 c -1.26247,-6.956785 -1.422097,-14.069129 -0.473013,-21.07555 0.949084,-7.006421 2.995105,-13.81999 6.06284,-20.190209 z"
             style="fill:#ffc400;fill-opacity:0.6;stroke:#4c4c4c;stroke-width:3.29346;stroke-linejoin:miter"
             id="path1698" />
        </g>
        <g
           id="patch_8"
           style="stroke-width:10.9782">
          <path
             clip-path="url(#p2c32932dbd)"
             d="m 92.16,92.16 c 0,0 0,0 0,0 0,0 0,0 0,0 l -31.649053,21.92652 c -0.574108,-0.82868 -1.115449,-1.67958 -1.622771,-2.55075 -0.507322,-0.87117 -0.980233,-1.76192 -1.41764,-2.6702 z"
             style="fill:#29ffce;fill-opacity:0.6;stroke:#4c4c4c;stroke-width:3.29346;stroke-linejoin:miter"
             id="path1701" />
        </g>
        <g
           id="patch_9"
           style="stroke-width:10.9782">
          <path
             clip-path="url(#p2c32932dbd)"
             d="m 92.16,92.16 c 0,0 0,0 0,0 0,0 0,0 0,0 l 8.06174,47.448 c -3.107957,0.52806 -6.260292,0.74948 -9.41155,0.66107 -3.151258,-0.0884 -6.286219,-0.48624 -9.359678,-1.18774 z"
             style="fill:#7dff7a;fill-opacity:0.6;stroke:#4c4c4c;stroke-width:3.29346;stroke-linejoin:miter"
             id="path1704" />
        </g>
        <g
           id="patch_10"
           style="stroke-width:10.9782">
          <path
             clip-path="url(#p2c32932dbd)"
             d="m 92.16,92.16 c 0,0 0,0 0,0 0,0 0,0 0,0 l 60.73967,47.3332 c -1.85931,2.38593 -3.85759,4.66024 -5.98445,6.81109 -2.12685,2.15086 -4.37859,4.17453 -6.74351,6.06049 z"
             style="fill:#ff6800;fill-opacity:0.6;stroke:#4c4c4c;stroke-width:3.29346;stroke-linejoin:miter"
             id="path1707" />
        </g>
        <g
           id="patch_11"
           style="stroke-width:10.9782">
          <path
             d="m 178.7904,92.16 c 0,-11.3762 -2.24086,-22.641781 -6.59435,-33.152019 C 167.84257,48.497743 161.46113,38.947245 153.41694,30.903057 145.37275,22.858869 135.82226,16.47743 125.31202,12.123947 114.80178,7.770463 103.5362,5.5296 92.16,5.5296 80.7838,5.5296 69.518219,7.770463 59.007981,12.123947 48.497743,16.47743 38.947245,22.858869 30.903057,30.903057 22.858869,38.947245 16.47743,48.497743 12.123947,59.007981 7.770463,69.518219 5.5296,80.7838 5.5296,92.16 c 0,11.3762 2.240863,22.64178 6.594347,33.15202 4.353483,10.51024 10.734922,20.06073 18.77911,28.10492 8.044188,8.04419 17.594686,14.42563 28.104924,18.77911 10.510238,4.35349 21.775819,6.59435 33.152019,6.59435 11.3762,0 22.64178,-2.24086 33.15202,-6.59435 10.51024,-4.35348 20.06073,-10.73492 28.10492,-18.77911 8.04419,-8.04419 14.42563,-17.59468 18.77911,-28.10492 4.35349,-10.51024 6.59435,-21.77582 6.59435,-33.15202"
             style="fill:none;stroke:#11557c;stroke-width:3.29346;stroke-linecap:square;stroke-linejoin:miter"
             id="path1710" />
        </g>
      </g>
    </g>
    <text
       xml:space="preserve"
       style="font-size:14.9122px;line-height:1.25;font-family:'Clarendon BT';-inkscape-font-specification:'Clarendon BT';fill:#ffffff;fill-opacity:1;stroke-width:0.372806"
       x="159.80151"
       y="103.14902"
       id="text2641"><tspan
         sodipodi:role="line"
         id="tspan2639"
         x="159.80151"
         y="103.14902"
         style="fill:#ffffff;fill-opacity:1;stroke-width:0.372806">Fortran</tspan></text>
  </g>
</svg>
