<?xml version="1.0" encoding="UTF-8" standalone="no"?>
<!DOCTYPE svg PUBLIC "-//W3C//DTD SVG 1.1//EN"
 "http://www.w3.org/Graphics/SVG/1.1/DTD/svg11.dtd">
<!-- Generated by graphviz version 2.26.3 (20100126.1600)
 -->
<!-- Title: call~~graph~~CallGraph Pages: 1 -->
<svg width="362pt" height="342pt"
 viewBox="0.00 0.00 362.00 342.00" xmlns="http://www.w3.org/2000/svg" xmlns:xlink="http://www.w3.org/1999/xlink">
<g id="graph1" class="graph" transform="scale(1 1) rotate(0) translate(4 338)">
<title>call~~graph~~CallGraph</title>
<polygon fill="white" stroke="white" points="-4,5 -4,-338 359,-338 359,5 -4,5"/>
<!-- proc~add_plot -->
<g id="node1" class="node"><title>proc~add_plot</title>
<a xlink:href="../proc/add_plot.html" xlink:title="add_plot">
<polygon fill="#d9534f" stroke="#d9534f" points="63,-114 9,-114 9,-88 63,-88 63,-114"/>
<text text-anchor="middle" x="36" y="-98.55" font-family="Helvetica,sans-Serif" font-size="10.50" fill="white">add_plot</text>
</a>
</g>
<!-- proc~optional_int_to_string -->
<g id="node3" class="node"><title>proc~optional_int_to_string</title>
<a xlink:href="../proc/optional_int_to_string.html" xlink:title="optional_int_to_string">
<polygon fill="#d9534f" stroke="#d9534f" points="223,-115 109,-115 109,-89 223,-89 223,-115"/>
<text text-anchor="middle" x="166" y="-99.55" font-family="Helvetica,sans-Serif" font-size="10.50" fill="white">optional_int_to_string</text>
</a>
</g>
<!-- proc~add_plot&#45;&gt;proc~optional_int_to_string -->
<g id="edge4" class="edge"><title>proc~add_plot&#45;&gt;proc~optional_int_to_string</title>
<path fill="none" stroke="black" d="M63.2523,-101.21C73.4896,-101.288 85.6387,-101.382 97.9344,-101.476"/>
<polygon fill="black" stroke="black" points="98.2319,-104.979 108.259,-101.556 98.2858,-97.9789 98.2319,-104.979"/>
</g>
<!-- proc~vec_to_string -->
<g id="node5" class="node"><title>proc~vec_to_string</title>
<a xlink:href="../proc/vec_to_string.html" xlink:title="vec_to_string">
<polygon fill="#d9534f" stroke="#d9534f" points="204,-70 128,-70 128,-44 204,-44 204,-70"/>
<text text-anchor="middle" x="166" y="-54.55" font-family="Helvetica,sans-Serif" font-size="10.50" fill="white">vec_to_string</text>
</a>
</g>
<!-- proc~add_plot&#45;&gt;proc~vec_to_string -->
<g id="edge2" class="edge"><title>proc~add_plot&#45;&gt;proc~vec_to_string</title>
<path fill="none" stroke="black" d="M63.2523,-91.7762C79.2295,-86.3685 99.8633,-79.3847 118.443,-73.096"/>
<polygon fill="black" stroke="black" points="119.587,-76.4041 127.937,-69.8829 117.343,-69.7736 119.587,-76.4041"/>
</g>
<!-- proc~savefig -->
<g id="node2" class="node"><title>proc~savefig</title>
<a xlink:href="../proc/savefig.html" xlink:title="savefig">
<polygon fill="#d9534f" stroke="#d9534f" points="63,-202 9,-202 9,-176 63,-176 63,-202"/>
<text text-anchor="middle" x="36" y="-186.55" font-family="Helvetica,sans-Serif" font-size="10.50" fill="white">savefig</text>
</a>
</g>
<!-- proc~integer_to_string -->
<g id="node7" class="node"><title>proc~integer_to_string</title>
<a xlink:href="../proc/integer_to_string.html" xlink:title="integer_to_string">
<polygon fill="#d9534f" stroke="#d9534f" points="353,-136 261,-136 261,-110 353,-110 353,-136"/>
<text text-anchor="middle" x="307" y="-120.55" font-family="Helvetica,sans-Serif" font-size="10.50" fill="white">integer_to_string</text>
</a>
</g>
<!-- proc~optional_int_to_string&#45;&gt;proc~integer_to_string -->
<g id="edge6" class="edge"><title>proc~optional_int_to_string&#45;&gt;proc~integer_to_string</title>
<path fill="none" stroke="black" d="M223.757,-110.602C232.503,-111.905 241.52,-113.248 250.244,-114.547"/>
<polygon fill="black" stroke="black" points="249.912,-118.036 260.318,-116.047 250.943,-111.112 249.912,-118.036"/>
</g>
<!-- proc~execute -->
<g id="node4" class="node"><title>proc~execute</title>
<a xlink:href="../proc/execute.html" xlink:title="execute">
<polygon fill="#d9534f" stroke="#d9534f" points="63,-246 9,-246 9,-220 63,-220 63,-246"/>
<text text-anchor="middle" x="36" y="-230.55" font-family="Helvetica,sans-Serif" font-size="10.50" fill="white">execute</text>
</a>
</g>
<!-- proc~destroy -->
<g id="node6" class="node"><title>proc~destroy</title>
<a xlink:href="../proc/destroy.html" xlink:title="destroy">
<polygon fill="#d9534f" stroke="#d9534f" points="63,-290 9,-290 9,-264 63,-264 63,-290"/>
<text text-anchor="middle" x="36" y="-274.55" font-family="Helvetica,sans-Serif" font-size="10.50" fill="white">destroy</text>
</a>
</g>
<!-- proc~initialize -->
<g id="node8" class="node"><title>proc~initialize</title>
<a xlink:href="../proc/initialize.html" xlink:title="initialize">
<polygon fill="#d9534f" stroke="#d9534f" points="63,-158 9,-158 9,-132 63,-132 63,-158"/>
<text text-anchor="middle" x="36" y="-142.55" font-family="Helvetica,sans-Serif" font-size="10.50" fill="white">initialize</text>
</a>
</g>
<!-- proc~initialize&#45;&gt;proc~optional_int_to_string -->
<g id="edge10" class="edge"><title>proc~initialize&#45;&gt;proc~optional_int_to_string</title>
<path fill="none" stroke="black" d="M63.2523,-135.986C78.7776,-130.851 98.6996,-124.261 116.862,-118.253"/>
<polygon fill="black" stroke="black" points="118.053,-121.546 126.448,-115.082 115.855,-114.9 118.053,-121.546"/>
</g>
<!-- proc~initialize&#45;&gt;proc~integer_to_string -->
<g id="edge8" class="edge"><title>proc~initialize&#45;&gt;proc~integer_to_string</title>
<path fill="none" stroke="black" d="M63.2253,-142.79C106.783,-139.254 193.056,-132.25 250.399,-127.595"/>
<polygon fill="black" stroke="black" points="250.715,-131.081 260.399,-126.783 250.149,-124.104 250.715,-131.081"/>
</g>
<!-- proc~add_3d_plot -->
<g id="node9" class="node"><title>proc~add_3d_plot</title>
<a xlink:href="../proc/add_3d_plot.html" xlink:title="add_3d_plot">
<polygon fill="#d9534f" stroke="#d9534f" points="72,-70 2.84217e-14,-70 0,-44 72,-44 72,-70"/>
<text text-anchor="middle" x="36" y="-54.55" font-family="Helvetica,sans-Serif" font-size="10.50" fill="white">add_3d_plot</text>
</a>
</g>
<!-- proc~add_3d_plot&#45;&gt;proc~optional_int_to_string -->
<g id="edge14" class="edge"><title>proc~add_3d_plot&#45;&gt;proc~optional_int_to_string</title>
<path fill="none" stroke="black" d="M72.2122,-69.535C86.5102,-74.4843 103.137,-80.2397 118.386,-85.5182"/>
<polygon fill="black" stroke="black" points="117.575,-88.9411 128.169,-88.9048 119.864,-82.3262 117.575,-88.9411"/>
</g>
<!-- proc~add_3d_plot&#45;&gt;proc~vec_to_string -->
<g id="edge12" class="edge"><title>proc~add_3d_plot&#45;&gt;proc~vec_to_string</title>
<path fill="none" stroke="black" d="M72.2122,-57C86.2519,-57 102.537,-57 117.558,-57"/>
<polygon fill="black" stroke="black" points="117.713,-60.5001 127.713,-57 117.713,-53.5001 117.713,-60.5001"/>
</g>
<!-- proc~add_str -->
<g id="node10" class="node"><title>proc~add_str</title>
<a xlink:href="../proc/add_str.html" xlink:title="add_str">
<polygon fill="#d9534f" stroke="#d9534f" points="63,-334 9,-334 9,-308 63,-308 63,-334"/>
<text text-anchor="middle" x="36" y="-318.55" font-family="Helvetica,sans-Serif" font-size="10.50" fill="white">add_str</text>
</a>
</g>
<!-- proc~add_bar -->
<g id="node11" class="node"><title>proc~add_bar</title>
<a xlink:href="../proc/add_bar.html" xlink:title="add_bar">
<polygon fill="#d9534f" stroke="#d9534f" points="63,-26 9,-26 9,-1.24345e-14 63,-3.55271e-15 63,-26"/>
<text text-anchor="middle" x="36" y="-10.55" font-family="Helvetica,sans-Serif" font-size="10.50" fill="white">add_bar</text>
</a>
</g>
<!-- proc~add_bar&#45;&gt;proc~vec_to_string -->
<g id="edge16" class="edge"><title>proc~add_bar&#45;&gt;proc~vec_to_string</title>
<path fill="none" stroke="black" d="M63.2523,-22.2238C79.2295,-27.6315 99.8633,-34.6153 118.443,-40.904"/>
<polygon fill="black" stroke="black" points="117.343,-44.2264 127.937,-44.1171 119.587,-37.5959 117.343,-44.2264"/>
</g>
</g>
</svg>
