<?xml version="1.0" encoding="UTF-8" standalone="no"?>
<!DOCTYPE svg PUBLIC "-//W3C//DTD SVG 1.1//EN"
 "http://www.w3.org/Graphics/SVG/1.1/DTD/svg11.dtd">
<!-- Generated by graphviz version 2.26.3 (20100126.1600)
 -->
<!-- Title: call~~graph~~CallGraph Pages: 1 -->
<svg width="362pt" height="342pt"
 viewBox="0.00 0.00 362.00 342.00" xmlns="http://www.w3.org/2000/svg" xmlns:xlink="http://www.w3.org/1999/xlink">
<g id="graph1" class="graph" transform="scale(1 1) rotate(0) translate(4 338)">
<title>call~~graph~~CallGraph</title>
<polygon fill="white" stroke="white" points="-4,5 -4,-338 359,-338 359,5 -4,5"/>
<!-- proc~execute -->
<g id="node1" class="node"><title>proc~execute</title>
<a xlink:href="../proc/execute.html" xlink:title="execute">
<polygon fill="#d9534f" stroke="#d9534f" points="63,-26 9,-26 9,-1.24345e-14 63,-3.55271e-15 63,-26"/>
<text text-anchor="middle" x="36" y="-10.55" font-family="Helvetica,sans-Serif" font-size="10.50" fill="white">execute</text>
</a>
</g>
<!-- proc~initialize -->
<g id="node2" class="node"><title>proc~initialize</title>
<a xlink:href="../proc/initialize.html" xlink:title="initialize">
<polygon fill="#d9534f" stroke="#d9534f" points="63,-202 9,-202 9,-176 63,-176 63,-202"/>
<text text-anchor="middle" x="36" y="-186.55" font-family="Helvetica,sans-Serif" font-size="10.50" fill="white">initialize</text>
</a>
</g>
<!-- proc~integer_to_string -->
<g id="node3" class="node"><title>proc~integer_to_string</title>
<a xlink:href="../proc/integer_to_string.html" xlink:title="integer_to_string">
<polygon fill="#d9534f" stroke="#d9534f" points="353,-180 261,-180 261,-154 353,-154 353,-180"/>
<text text-anchor="middle" x="307" y="-164.55" font-family="Helvetica,sans-Serif" font-size="10.50" fill="white">integer_to_string</text>
</a>
</g>
<!-- proc~initialize&#45;&gt;proc~integer_to_string -->
<g id="edge4" class="edge"><title>proc~initialize&#45;&gt;proc~integer_to_string</title>
<path fill="none" stroke="black" d="M63.2253,-186.79C106.783,-183.254 193.056,-176.25 250.399,-171.595"/>
<polygon fill="black" stroke="black" points="250.715,-175.081 260.399,-170.783 250.149,-168.104 250.715,-175.081"/>
</g>
<!-- proc~optional_int_to_string -->
<g id="node8" class="node"><title>proc~optional_int_to_string</title>
<a xlink:href="../proc/optional_int_to_string.html" xlink:title="optional_int_to_string">
<polygon fill="#d9534f" stroke="#d9534f" points="223,-159 109,-159 109,-133 223,-133 223,-159"/>
<text text-anchor="middle" x="166" y="-143.55" font-family="Helvetica,sans-Serif" font-size="10.50" fill="white">optional_int_to_string</text>
</a>
</g>
<!-- proc~initialize&#45;&gt;proc~optional_int_to_string -->
<g id="edge2" class="edge"><title>proc~initialize&#45;&gt;proc~optional_int_to_string</title>
<path fill="none" stroke="black" d="M63.2523,-179.986C78.7776,-174.851 98.6996,-168.261 116.862,-162.253"/>
<polygon fill="black" stroke="black" points="118.053,-165.546 126.448,-159.082 115.855,-158.9 118.053,-165.546"/>
</g>
<!-- proc~savefig -->
<g id="node4" class="node"><title>proc~savefig</title>
<a xlink:href="../proc/savefig.html" xlink:title="savefig">
<polygon fill="#d9534f" stroke="#d9534f" points="63,-246 9,-246 9,-220 63,-220 63,-246"/>
<text text-anchor="middle" x="36" y="-230.55" font-family="Helvetica,sans-Serif" font-size="10.50" fill="white">savefig</text>
</a>
</g>
<!-- proc~add_3d_plot -->
<g id="node5" class="node"><title>proc~add_3d_plot</title>
<a xlink:href="../proc/add_3d_plot.html" xlink:title="add_3d_plot">
<polygon fill="#d9534f" stroke="#d9534f" points="72,-158 2.84217e-14,-158 0,-132 72,-132 72,-158"/>
<text text-anchor="middle" x="36" y="-142.55" font-family="Helvetica,sans-Serif" font-size="10.50" fill="white">add_3d_plot</text>
</a>
</g>
<!-- proc~add_3d_plot&#45;&gt;proc~optional_int_to_string -->
<g id="edge8" class="edge"><title>proc~add_3d_plot&#45;&gt;proc~optional_int_to_string</title>
<path fill="none" stroke="black" d="M72.2122,-145.279C80.2909,-145.341 89.1131,-145.409 98.0102,-145.477"/>
<polygon fill="black" stroke="black" points="98.0247,-148.977 108.051,-145.554 98.0786,-141.977 98.0247,-148.977"/>
</g>
<!-- proc~vec_to_string -->
<g id="node10" class="node"><title>proc~vec_to_string</title>
<a xlink:href="../proc/vec_to_string.html" xlink:title="vec_to_string">
<polygon fill="#d9534f" stroke="#d9534f" points="204,-114 128,-114 128,-88 204,-88 204,-114"/>
<text text-anchor="middle" x="166" y="-98.55" font-family="Helvetica,sans-Serif" font-size="10.50" fill="white">vec_to_string</text>
</a>
</g>
<!-- proc~add_3d_plot&#45;&gt;proc~vec_to_string -->
<g id="edge6" class="edge"><title>proc~add_3d_plot&#45;&gt;proc~vec_to_string</title>
<path fill="none" stroke="black" d="M72.2122,-132.744C86.3869,-127.946 102.851,-122.374 117.991,-117.249"/>
<polygon fill="black" stroke="black" points="119.362,-120.48 127.713,-113.959 117.118,-113.85 119.362,-120.48"/>
</g>
<!-- proc~add_str -->
<g id="node6" class="node"><title>proc~add_str</title>
<a xlink:href="../proc/add_str.html" xlink:title="add_str">
<polygon fill="#d9534f" stroke="#d9534f" points="63,-290 9,-290 9,-264 63,-264 63,-290"/>
<text text-anchor="middle" x="36" y="-274.55" font-family="Helvetica,sans-Serif" font-size="10.50" fill="white">add_str</text>
</a>
</g>
<!-- proc~add_bar -->
<g id="node7" class="node"><title>proc~add_bar</title>
<a xlink:href="../proc/add_bar.html" xlink:title="add_bar">
<polygon fill="#d9534f" stroke="#d9534f" points="63,-70 9,-70 9,-44 63,-44 63,-70"/>
<text text-anchor="middle" x="36" y="-54.55" font-family="Helvetica,sans-Serif" font-size="10.50" fill="white">add_bar</text>
</a>
</g>
<!-- proc~add_bar&#45;&gt;proc~vec_to_string -->
<g id="edge10" class="edge"><title>proc~add_bar&#45;&gt;proc~vec_to_string</title>
<path fill="none" stroke="black" d="M63.2523,-66.2238C79.2295,-71.6315 99.8633,-78.6153 118.443,-84.904"/>
<polygon fill="black" stroke="black" points="117.343,-88.2264 127.937,-88.1171 119.587,-81.5959 117.343,-88.2264"/>
</g>
<!-- proc~optional_int_to_string&#45;&gt;proc~integer_to_string -->
<g id="edge12" class="edge"><title>proc~optional_int_to_string&#45;&gt;proc~integer_to_string</title>
<path fill="none" stroke="black" d="M223.757,-154.602C232.503,-155.905 241.52,-157.248 250.244,-158.547"/>
<polygon fill="black" stroke="black" points="249.912,-162.036 260.318,-160.047 250.943,-155.112 249.912,-162.036"/>
</g>
<!-- proc~destroy -->
<g id="node9" class="node"><title>proc~destroy</title>
<a xlink:href="../proc/destroy.html" xlink:title="destroy">
<polygon fill="#d9534f" stroke="#d9534f" points="63,-334 9,-334 9,-308 63,-308 63,-334"/>
<text text-anchor="middle" x="36" y="-318.55" font-family="Helvetica,sans-Serif" font-size="10.50" fill="white">destroy</text>
</a>
</g>
<!-- proc~add_plot -->
<g id="node11" class="node"><title>proc~add_plot</title>
<a xlink:href="../proc/add_plot.html" xlink:title="add_plot">
<polygon fill="#d9534f" stroke="#d9534f" points="63,-114 9,-114 9,-88 63,-88 63,-114"/>
<text text-anchor="middle" x="36" y="-98.55" font-family="Helvetica,sans-Serif" font-size="10.50" fill="white">add_plot</text>
</a>
</g>
<!-- proc~add_plot&#45;&gt;proc~optional_int_to_string -->
<g id="edge16" class="edge"><title>proc~add_plot&#45;&gt;proc~optional_int_to_string</title>
<path fill="none" stroke="black" d="M63.2523,-110.433C79.3563,-116.008 100.191,-123.22 118.885,-129.691"/>
<polygon fill="black" stroke="black" points="117.835,-133.031 128.43,-132.995 120.125,-126.416 117.835,-133.031"/>
</g>
<!-- proc~add_plot&#45;&gt;proc~vec_to_string -->
<g id="edge14" class="edge"><title>proc~add_plot&#45;&gt;proc~vec_to_string</title>
<path fill="none" stroke="black" d="M63.2523,-101C79.0829,-101 99.4851,-101 117.932,-101"/>
<polygon fill="black" stroke="black" points="117.937,-104.5 127.937,-101 117.937,-97.5001 117.937,-104.5"/>
</g>
</g>
</svg>
