<?xml version="1.0" encoding="UTF-8" standalone="no"?>
<!DOCTYPE svg PUBLIC "-//W3C//DTD SVG 1.1//EN"
 "http://www.w3.org/Graphics/SVG/1.1/DTD/svg11.dtd">
<!-- Generated by graphviz version 2.26.3 (20100126.1600)
 -->
<!-- Title: module~~pyplot_module~~UsedByGraph Pages: 1 -->
<svg width="180pt" height="34pt"
 viewBox="0.00 0.00 180.00 34.00" xmlns="http://www.w3.org/2000/svg" xmlns:xlink="http://www.w3.org/1999/xlink">
<g id="graph1" class="graph" transform="scale(1 1) rotate(0) translate(4 30)">
<title>module~~pyplot_module~~UsedByGraph</title>
<polygon fill="white" stroke="white" points="-4,5 -4,-30 177,-30 177,5 -4,5"/>
<!-- module~pyplot_module -->
<g id="node1" class="node"><title>module~pyplot_module</title>
<polygon fill="none" stroke="black" points="82,-26 4.26326e-14,-26 0,-1.24345e-14 82,-3.55271e-15 82,-26"/>
<text text-anchor="middle" x="41" y="-10.55" font-family="Helvetica,sans-Serif" font-size="10.50">pyplot_module</text>
</g>
<!-- program~test -->
<g id="node2" class="node"><title>program~test</title>
<a xlink:href="../program/test.html" xlink:title="test">
<polygon fill="#f0ad4e" stroke="#f0ad4e" points="172,-26 118,-26 118,-1.24345e-14 172,-3.55271e-15 172,-26"/>
<text text-anchor="middle" x="145" y="-10.55" font-family="Helvetica,sans-Serif" font-size="10.50" fill="white">test</text>
</a>
</g>
<!-- module~pyplot_module&#45;&gt;program~test -->
<g id="edge2" class="edge"><title>module~pyplot_module&#45;&gt;program~test</title>
<path fill="none" stroke="black" stroke-dasharray="5,2" d="M82.1036,-13C90.5669,-13 99.4334,-13 107.751,-13"/>
<polygon fill="black" stroke="black" points="107.921,-16.5001 117.921,-13 107.921,-9.5001 107.921,-16.5001"/>
</g>
</g>
</svg>
