<?xml version="1.0" encoding="UTF-8" standalone="no"?>
<!DOCTYPE svg PUBLIC "-//W3C//DTD SVG 1.1//EN"
 "http://www.w3.org/Graphics/SVG/1.1/DTD/svg11.dtd">
<!-- Generated by graphviz version 2.26.3 (20100126.1600)
 -->
<!-- Title: module~~graph~~ModuleGraph Pages: 1 -->
<svg width="304pt" height="55pt"
 viewBox="0.00 0.00 304.00 55.00" xmlns="http://www.w3.org/2000/svg" xmlns:xlink="http://www.w3.org/1999/xlink">
<g id="graph1" class="graph" transform="scale(1 1) rotate(0) translate(4 51)">
<title>module~~graph~~ModuleGraph</title>
<polygon fill="white" stroke="white" points="-4,5 -4,-51 301,-51 301,5 -4,5"/>
<!-- module~pyplot_module -->
<g id="node1" class="node"><title>module~pyplot_module</title>
<a xlink:href="../module/pyplot_module.html" xlink:title="pyplot_module">
<polygon fill="#337ab7" stroke="#337ab7" points="206,-47 124,-47 124,-21 206,-21 206,-47"/>
<text text-anchor="middle" x="165" y="-31.55" font-family="Helvetica,sans-Serif" font-size="10.50" fill="white">pyplot_module</text>
</a>
</g>
<!-- program~test -->
<g id="node2" class="node"><title>program~test</title>
<a xlink:href="../program/test.html" xlink:title="test">
<polygon fill="#f0ad4e" stroke="#f0ad4e" points="296,-26 242,-26 242,-1.24345e-14 296,-3.55271e-15 296,-26"/>
<text text-anchor="middle" x="269" y="-10.55" font-family="Helvetica,sans-Serif" font-size="10.50" fill="white">test</text>
</a>
</g>
<!-- module~pyplot_module&#45;&gt;program~test -->
<g id="edge6" class="edge"><title>module~pyplot_module&#45;&gt;program~test</title>
<path fill="none" stroke="black" stroke-dasharray="5,2" d="M206.104,-25.7002C214.661,-23.9723 223.63,-22.1612 232.028,-20.4655"/>
<polygon fill="black" stroke="black" points="232.812,-23.8779 241.921,-18.4678 231.426,-17.0164 232.812,-23.8779"/>
</g>
<!-- iso_fortran_env -->
<g id="node3" class="node"><title>iso_fortran_env</title>
<a xlink:href="https://software.intel.com/en-us/node/511041" xlink:title="iso_fortran_env">
<polygon fill="#337ab7" stroke="#337ab7" points="87,-26 1,-26 1,-1.24345e-14 87,-3.55271e-15 87,-26"/>
<text text-anchor="middle" x="44" y="-10.55" font-family="Helvetica,sans-Serif" font-size="10.50" fill="white">iso_fortran_env</text>
</a>
</g>
<!-- iso_fortran_env&#45;&gt;module~pyplot_module -->
<g id="edge2" class="edge"><title>iso_fortran_env&#45;&gt;module~pyplot_module</title>
<path fill="none" stroke="black" stroke-dasharray="5,2" d="M87.6838,-20.5815C96.1497,-22.0508 105.093,-23.6029 113.775,-25.1097"/>
<polygon fill="black" stroke="black" points="113.351,-28.5885 123.803,-26.8501 114.549,-21.6916 113.351,-28.5885"/>
</g>
<!-- iso_fortran_env&#45;&gt;program~test -->
<g id="edge4" class="edge"><title>iso_fortran_env&#45;&gt;program~test</title>
<path fill="none" stroke="black" stroke-dasharray="5,2" d="M87.5948,-12.3563C99.408,-12.2088 112.194,-12.0738 124,-12 160.444,-11.7722 169.557,-11.7108 206,-12 214.23,-12.0653 223.063,-12.1786 231.435,-12.306"/>
<polygon fill="black" stroke="black" points="231.657,-15.81 241.712,-12.4725 231.77,-8.8109 231.657,-15.81"/>
</g>
</g>
</svg>
