<?xml version="1.0" encoding="UTF-8" standalone="no"?>
<!DOCTYPE svg PUBLIC "-//W3C//DTD SVG 1.1//EN"
 "http://www.w3.org/Graphics/SVG/1.1/DTD/svg11.dtd">
<!-- Generated by graphviz version 2.26.3 (20100126.1600)
 -->
<!-- Title: module~~pyplot_module~~UsesGraph Pages: 1 -->
<svg width="214pt" height="34pt"
 viewBox="0.00 0.00 214.00 34.00" xmlns="http://www.w3.org/2000/svg" xmlns:xlink="http://www.w3.org/1999/xlink">
<g id="graph1" class="graph" transform="scale(1 1) rotate(0) translate(4 30)">
<title>module~~pyplot_module~~UsesGraph</title>
<polygon fill="white" stroke="white" points="-4,5 -4,-30 211,-30 211,5 -4,5"/>
<!-- module~pyplot_module -->
<g id="node1" class="node"><title>module~pyplot_module</title>
<polygon fill="none" stroke="black" points="206,-26 124,-26 124,-1.24345e-14 206,-3.55271e-15 206,-26"/>
<text text-anchor="middle" x="165" y="-10.55" font-family="Helvetica,sans-Serif" font-size="10.50">pyplot_module</text>
</g>
<!-- iso_fortran_env -->
<g id="node2" class="node"><title>iso_fortran_env</title>
<a xlink:href="https://software.intel.com/en-us/node/511041" xlink:title="iso_fortran_env">
<polygon fill="#337ab7" stroke="#337ab7" points="87,-26 1,-26 1,-1.24345e-14 87,-3.55271e-15 87,-26"/>
<text text-anchor="middle" x="44" y="-10.55" font-family="Helvetica,sans-Serif" font-size="10.50" fill="white">iso_fortran_env</text>
</a>
</g>
<!-- iso_fortran_env&#45;&gt;module~pyplot_module -->
<g id="edge2" class="edge"><title>iso_fortran_env&#45;&gt;module~pyplot_module</title>
<path fill="none" stroke="black" stroke-dasharray="5,2" d="M87.6838,-13C96.1497,-13 105.093,-13 113.775,-13"/>
<polygon fill="black" stroke="black" points="113.803,-16.5001 123.803,-13 113.803,-9.5001 113.803,-16.5001"/>
</g>
</g>
</svg>
