<?xml version="1.0" encoding="UTF-8" standalone="no"?>
<!DOCTYPE svg PUBLIC "-//W3C//DTD SVG 1.1//EN"
 "http://www.w3.org/Graphics/SVG/1.1/DTD/svg11.dtd">
<!-- Generated by graphviz version 2.26.3 (20100126.1600)
 -->
<!-- Title: proc~~add_plot~~CallsGraph Pages: 1 -->
<svg width="344pt" height="78pt"
 viewBox="0.00 0.00 344.00 78.00" xmlns="http://www.w3.org/2000/svg" xmlns:xlink="http://www.w3.org/1999/xlink">
<g id="graph1" class="graph" transform="scale(1 1) rotate(0) translate(4 74)">
<title>proc~~add_plot~~CallsGraph</title>
<polygon fill="white" stroke="white" points="-4,5 -4,-74 341,-74 341,5 -4,5"/>
<!-- proc~add_plot -->
<g id="node1" class="node"><title>proc~add_plot</title>
<polygon fill="none" stroke="black" points="54,-48 2.13163e-14,-48 0,-22 54,-22 54,-48"/>
<text text-anchor="middle" x="27" y="-32.55" font-family="Helvetica,sans-Serif" font-size="10.50">add_plot</text>
</g>
<!-- proc~vec_to_string -->
<g id="node2" class="node"><title>proc~vec_to_string</title>
<a xlink:href="../proc/vec_to_string.html" xlink:title="vec_to_string">
<polygon fill="#d9534f" stroke="#d9534f" points="186,-70 110,-70 110,-44 186,-44 186,-70"/>
<text text-anchor="middle" x="148" y="-54.55" font-family="Helvetica,sans-Serif" font-size="10.50" fill="white">vec_to_string</text>
</a>
</g>
<!-- proc~add_plot&#45;&gt;proc~vec_to_string -->
<g id="edge4" class="edge"><title>proc~add_plot&#45;&gt;proc~vec_to_string</title>
<path fill="none" stroke="black" d="M54.1548,-39.9372C67.6439,-42.3898 84.3492,-45.4271 99.9099,-48.2564"/>
<polygon fill="black" stroke="black" points="99.4602,-51.7319 109.925,-50.0773 100.712,-44.8448 99.4602,-51.7319"/>
</g>
<!-- proc~optional_int_to_string -->
<g id="node3" class="node"><title>proc~optional_int_to_string</title>
<a xlink:href="../proc/optional_int_to_string.html" xlink:title="optional_int_to_string">
<polygon fill="#d9534f" stroke="#d9534f" points="205,-26 91,-26 91,-1.24345e-14 205,-3.55271e-15 205,-26"/>
<text text-anchor="middle" x="148" y="-10.55" font-family="Helvetica,sans-Serif" font-size="10.50" fill="white">optional_int_to_string</text>
</a>
</g>
<!-- proc~add_plot&#45;&gt;proc~optional_int_to_string -->
<g id="edge6" class="edge"><title>proc~add_plot&#45;&gt;proc~optional_int_to_string</title>
<path fill="none" stroke="black" d="M54.1548,-30.0628C62.0348,-28.63 71.0125,-26.9977 80.2184,-25.3239"/>
<polygon fill="black" stroke="black" points="81.0436,-28.7314 90.2562,-23.4989 79.7913,-21.8443 81.0436,-28.7314"/>
</g>
<!-- proc~integer_to_string -->
<g id="node4" class="node"><title>proc~integer_to_string</title>
<a xlink:href="../proc/integer_to_string.html" xlink:title="integer_to_string">
<polygon fill="#d9534f" stroke="#d9534f" points="335,-26 243,-26 243,-1.24345e-14 335,-3.55271e-15 335,-26"/>
<text text-anchor="middle" x="289" y="-10.55" font-family="Helvetica,sans-Serif" font-size="10.50" fill="white">integer_to_string</text>
</a>
</g>
<!-- proc~optional_int_to_string&#45;&gt;proc~integer_to_string -->
<g id="edge2" class="edge"><title>proc~optional_int_to_string&#45;&gt;proc~integer_to_string</title>
<path fill="none" stroke="black" d="M205.757,-13C214.503,-13 223.52,-13 232.244,-13"/>
<polygon fill="black" stroke="black" points="232.318,-16.5001 242.318,-13 232.318,-9.5001 232.318,-16.5001"/>
</g>
</g>
</svg>
