<?xml version="1.0" encoding="UTF-8" standalone="no"?>
<!DOCTYPE svg PUBLIC "-//W3C//DTD SVG 1.1//EN"
 "http://www.w3.org/Graphics/SVG/1.1/DTD/svg11.dtd">
<!-- Generated by graphviz version 2.26.3 (20100126.1600)
 -->
<!-- Title: proc~~vec_to_string~~CalledByGraph Pages: 1 -->
<svg width="192pt" height="122pt"
 viewBox="0.00 0.00 192.00 122.00" xmlns="http://www.w3.org/2000/svg" xmlns:xlink="http://www.w3.org/1999/xlink">
<g id="graph1" class="graph" transform="scale(1 1) rotate(0) translate(4 118)">
<title>proc~~vec_to_string~~CalledByGraph</title>
<polygon fill="white" stroke="white" points="-4,5 -4,-118 189,-118 189,5 -4,5"/>
<!-- proc~vec_to_string -->
<g id="node1" class="node"><title>proc~vec_to_string</title>
<polygon fill="none" stroke="black" points="184,-70 108,-70 108,-44 184,-44 184,-70"/>
<text text-anchor="middle" x="146" y="-54.55" font-family="Helvetica,sans-Serif" font-size="10.50">vec_to_string</text>
</g>
<!-- proc~add_plot -->
<g id="node2" class="node"><title>proc~add_plot</title>
<a xlink:href="../proc/add_plot.html" xlink:title="add_plot">
<polygon fill="#d9534f" stroke="#d9534f" points="63,-114 9,-114 9,-88 63,-88 63,-114"/>
<text text-anchor="middle" x="36" y="-98.55" font-family="Helvetica,sans-Serif" font-size="10.50" fill="white">add_plot</text>
</a>
</g>
<!-- proc~add_plot&#45;&gt;proc~vec_to_string -->
<g id="edge2" class="edge"><title>proc~add_plot&#45;&gt;proc~vec_to_string</title>
<path fill="none" stroke="black" d="M63.191,-90.1236C75.3755,-85.2498 90.031,-79.3876 103.604,-73.9583"/>
<polygon fill="black" stroke="black" points="105.26,-77.0655 113.245,-70.1018 102.661,-70.5661 105.26,-77.0655"/>
</g>
<!-- proc~add_3d_plot -->
<g id="node3" class="node"><title>proc~add_3d_plot</title>
<a xlink:href="../proc/add_3d_plot.html" xlink:title="add_3d_plot">
<polygon fill="#d9534f" stroke="#d9534f" points="72,-70 2.84217e-14,-70 0,-44 72,-44 72,-70"/>
<text text-anchor="middle" x="36" y="-54.55" font-family="Helvetica,sans-Serif" font-size="10.50" fill="white">add_3d_plot</text>
</a>
</g>
<!-- proc~add_3d_plot&#45;&gt;proc~vec_to_string -->
<g id="edge4" class="edge"><title>proc~add_3d_plot&#45;&gt;proc~vec_to_string</title>
<path fill="none" stroke="black" d="M72.0181,-57C80.1254,-57 88.8599,-57 97.3868,-57"/>
<polygon fill="black" stroke="black" points="97.6287,-60.5001 107.629,-57 97.6287,-53.5001 97.6287,-60.5001"/>
</g>
<!-- proc~add_bar -->
<g id="node4" class="node"><title>proc~add_bar</title>
<a xlink:href="../proc/add_bar.html" xlink:title="add_bar">
<polygon fill="#d9534f" stroke="#d9534f" points="63,-26 9,-26 9,-1.24345e-14 63,-3.55271e-15 63,-26"/>
<text text-anchor="middle" x="36" y="-10.55" font-family="Helvetica,sans-Serif" font-size="10.50" fill="white">add_bar</text>
</a>
</g>
<!-- proc~add_bar&#45;&gt;proc~vec_to_string -->
<g id="edge6" class="edge"><title>proc~add_bar&#45;&gt;proc~vec_to_string</title>
<path fill="none" stroke="black" d="M63.191,-23.8764C75.3755,-28.7502 90.031,-34.6124 103.604,-40.0417"/>
<polygon fill="black" stroke="black" points="102.661,-43.4339 113.245,-43.8982 105.26,-36.9345 102.661,-43.4339"/>
</g>
</g>
</svg>
