<?xml version="1.0" encoding="UTF-8" standalone="no"?>
<!DOCTYPE svg PUBLIC "-//W3C//DTD SVG 1.1//EN"
 "http://www.w3.org/Graphics/SVG/1.1/DTD/svg11.dtd">
<!-- Generated by graphviz version 2.26.3 (20100126.1600)
 -->
<!-- Title: proc~~optional_int_to_string~~CalledByGraph Pages: 1 -->
<svg width="232pt" height="122pt"
 viewBox="0.00 0.00 232.00 122.00" xmlns="http://www.w3.org/2000/svg" xmlns:xlink="http://www.w3.org/1999/xlink">
<g id="graph1" class="graph" transform="scale(1 1) rotate(0) translate(4 118)">
<title>proc~~optional_int_to_string~~CalledByGraph</title>
<polygon fill="white" stroke="white" points="-4,5 -4,-118 229,-118 229,5 -4,5"/>
<!-- proc~optional_int_to_string -->
<g id="node1" class="node"><title>proc~optional_int_to_string</title>
<polygon fill="none" stroke="black" points="223,-70 109,-70 109,-44 223,-44 223,-70"/>
<text text-anchor="middle" x="166" y="-54.55" font-family="Helvetica,sans-Serif" font-size="10.50">optional_int_to_string</text>
</g>
<!-- proc~add_3d_plot -->
<g id="node2" class="node"><title>proc~add_3d_plot</title>
<a xlink:href="../proc/add_3d_plot.html" xlink:title="add_3d_plot">
<polygon fill="#d9534f" stroke="#d9534f" points="72,-114 2.84217e-14,-114 0,-88 72,-88 72,-114"/>
<text text-anchor="middle" x="36" y="-98.55" font-family="Helvetica,sans-Serif" font-size="10.50" fill="white">add_3d_plot</text>
</a>
</g>
<!-- proc~add_3d_plot&#45;&gt;proc~optional_int_to_string -->
<g id="edge2" class="edge"><title>proc~add_3d_plot&#45;&gt;proc~optional_int_to_string</title>
<path fill="none" stroke="black" d="M72.2122,-88.7435C86.2637,-83.9877 102.564,-78.4705 117.596,-73.3829"/>
<polygon fill="black" stroke="black" points="118.904,-76.6352 127.254,-70.1139 116.66,-70.0047 118.904,-76.6352"/>
</g>
<!-- proc~initialize -->
<g id="node3" class="node"><title>proc~initialize</title>
<a xlink:href="../proc/initialize.html" xlink:title="initialize">
<polygon fill="#d9534f" stroke="#d9534f" points="63,-70 9,-70 9,-44 63,-44 63,-70"/>
<text text-anchor="middle" x="36" y="-54.55" font-family="Helvetica,sans-Serif" font-size="10.50" fill="white">initialize</text>
</a>
</g>
<!-- proc~initialize&#45;&gt;proc~optional_int_to_string -->
<g id="edge4" class="edge"><title>proc~initialize&#45;&gt;proc~optional_int_to_string</title>
<path fill="none" stroke="black" d="M63.2523,-57C73.4896,-57 85.6387,-57 97.9344,-57"/>
<polygon fill="black" stroke="black" points="98.2586,-60.5001 108.259,-57 98.2585,-53.5001 98.2586,-60.5001"/>
</g>
<!-- proc~add_plot -->
<g id="node4" class="node"><title>proc~add_plot</title>
<a xlink:href="../proc/add_plot.html" xlink:title="add_plot">
<polygon fill="#d9534f" stroke="#d9534f" points="63,-26 9,-26 9,-1.24345e-14 63,-3.55271e-15 63,-26"/>
<text text-anchor="middle" x="36" y="-10.55" font-family="Helvetica,sans-Serif" font-size="10.50" fill="white">add_plot</text>
</a>
</g>
<!-- proc~add_plot&#45;&gt;proc~optional_int_to_string -->
<g id="edge6" class="edge"><title>proc~add_plot&#45;&gt;proc~optional_int_to_string</title>
<path fill="none" stroke="black" d="M63.2523,-22.2238C79.03,-27.564 99.3487,-34.4411 117.746,-40.668"/>
<polygon fill="black" stroke="black" points="116.848,-44.059 127.442,-43.9497 119.092,-37.4285 116.848,-44.059"/>
</g>
</g>
</svg>
