<?xml version="1.0" encoding="UTF-8" standalone="no"?>
<!DOCTYPE svg PUBLIC "-//W3C//DTD SVG 1.1//EN"
 "http://www.w3.org/Graphics/SVG/1.1/DTD/svg11.dtd">
<!-- Generated by graphviz version 2.26.3 (20100126.1600)
 -->
<!-- Title: proc~~add_bar~~CallsGraph Pages: 1 -->
<svg width="174pt" height="34pt"
 viewBox="0.00 0.00 174.00 34.00" xmlns="http://www.w3.org/2000/svg" xmlns:xlink="http://www.w3.org/1999/xlink">
<g id="graph1" class="graph" transform="scale(1 1) rotate(0) translate(4 30)">
<title>proc~~add_bar~~CallsGraph</title>
<polygon fill="white" stroke="white" points="-4,5 -4,-30 171,-30 171,5 -4,5"/>
<!-- proc~add_bar -->
<g id="node1" class="node"><title>proc~add_bar</title>
<polygon fill="none" stroke="black" points="54,-26 2.13163e-14,-26 0,-1.24345e-14 54,-3.55271e-15 54,-26"/>
<text text-anchor="middle" x="27" y="-10.55" font-family="Helvetica,sans-Serif" font-size="10.50">add_bar</text>
</g>
<!-- proc~vec_to_string -->
<g id="node2" class="node"><title>proc~vec_to_string</title>
<a xlink:href="../proc/vec_to_string.html" xlink:title="vec_to_string">
<polygon fill="#d9534f" stroke="#d9534f" points="166,-26 90,-26 90,-1.24345e-14 166,-3.55271e-15 166,-26"/>
<text text-anchor="middle" x="128" y="-10.55" font-family="Helvetica,sans-Serif" font-size="10.50" fill="white">vec_to_string</text>
</a>
</g>
<!-- proc~add_bar&#45;&gt;proc~vec_to_string -->
<g id="edge2" class="edge"><title>proc~add_bar&#45;&gt;proc~vec_to_string</title>
<path fill="none" stroke="black" d="M54.0661,-13C61.9618,-13 70.8395,-13 79.631,-13"/>
<polygon fill="black" stroke="black" points="79.8478,-16.5001 89.8477,-13 79.8477,-9.5001 79.8478,-16.5001"/>
</g>
</g>
</svg>
