<?xml version="1.0" encoding="UTF-8" standalone="no"?>
<!DOCTYPE svg PUBLIC "-//W3C//DTD SVG 1.1//EN"
 "http://www.w3.org/Graphics/SVG/1.1/DTD/svg11.dtd">
<!-- Generated by graphviz version 2.26.3 (20100126.1600)
 -->
<!-- Title: proc~~initialize~~CallsGraph Pages: 1 -->
<svg width="344pt" height="55pt"
 viewBox="0.00 0.00 344.00 55.00" xmlns="http://www.w3.org/2000/svg" xmlns:xlink="http://www.w3.org/1999/xlink">
<g id="graph1" class="graph" transform="scale(1 1) rotate(0) translate(4 51)">
<title>proc~~initialize~~CallsGraph</title>
<polygon fill="white" stroke="white" points="-4,5 -4,-51 341,-51 341,5 -4,5"/>
<!-- proc~initialize -->
<g id="node1" class="node"><title>proc~initialize</title>
<polygon fill="none" stroke="black" points="54,-26 2.13163e-14,-26 0,-1.24345e-14 54,-3.55271e-15 54,-26"/>
<text text-anchor="middle" x="27" y="-10.55" font-family="Helvetica,sans-Serif" font-size="10.50">initialize</text>
</g>
<!-- proc~optional_int_to_string -->
<g id="node2" class="node"><title>proc~optional_int_to_string</title>
<a xlink:href="../proc/optional_int_to_string.html" xlink:title="optional_int_to_string">
<polygon fill="#d9534f" stroke="#d9534f" points="205,-47 91,-47 91,-21 205,-21 205,-47"/>
<text text-anchor="middle" x="148" y="-31.55" font-family="Helvetica,sans-Serif" font-size="10.50" fill="white">optional_int_to_string</text>
</a>
</g>
<!-- proc~initialize&#45;&gt;proc~optional_int_to_string -->
<g id="edge4" class="edge"><title>proc~initialize&#45;&gt;proc~optional_int_to_string</title>
<path fill="none" stroke="black" d="M54.1548,-17.7128C62.0348,-19.0804 71.0125,-20.6385 80.2184,-22.2362"/>
<polygon fill="black" stroke="black" points="79.8049,-25.7167 90.2562,-23.9783 81.002,-18.8198 79.8049,-25.7167"/>
</g>
<!-- proc~integer_to_string -->
<g id="node3" class="node"><title>proc~integer_to_string</title>
<a xlink:href="../proc/integer_to_string.html" xlink:title="integer_to_string">
<polygon fill="#d9534f" stroke="#d9534f" points="335,-26 243,-26 243,-1.24345e-14 335,-3.55271e-15 335,-26"/>
<text text-anchor="middle" x="289" y="-10.55" font-family="Helvetica,sans-Serif" font-size="10.50" fill="white">integer_to_string</text>
</a>
</g>
<!-- proc~initialize&#45;&gt;proc~integer_to_string -->
<g id="edge6" class="edge"><title>proc~initialize&#45;&gt;proc~integer_to_string</title>
<path fill="none" stroke="black" d="M54.2876,-12.4725C65.3696,-12.2828 78.2958,-12.0929 90,-12 141.554,-11.5909 154.445,-11.6894 206,-12 214.493,-12.0512 223.475,-12.1318 232.27,-12.2256"/>
<polygon fill="black" stroke="black" points="232.43,-15.7275 242.469,-12.3407 232.509,-8.72793 232.43,-15.7275"/>
</g>
<!-- proc~optional_int_to_string&#45;&gt;proc~integer_to_string -->
<g id="edge2" class="edge"><title>proc~optional_int_to_string&#45;&gt;proc~integer_to_string</title>
<path fill="none" stroke="black" d="M205.757,-25.3979C214.503,-24.0953 223.52,-22.7524 232.244,-21.453"/>
<polygon fill="black" stroke="black" points="232.943,-24.8876 242.318,-19.9526 231.912,-17.964 232.943,-24.8876"/>
</g>
</g>
</svg>
