<?xml version="1.0" encoding="UTF-8" standalone="no"?>
<!DOCTYPE svg PUBLIC "-//W3C//DTD SVG 1.1//EN"
 "http://www.w3.org/Graphics/SVG/1.1/DTD/svg11.dtd">
<!-- Generated by graphviz version 2.26.3 (20100126.1600)
 -->
<!-- Title: proc~~initialize~~CallsGraph Pages: 1 -->
<svg width="344pt" height="54pt"
 viewBox="0.00 0.00 344.00 54.00" xmlns="http://www.w3.org/2000/svg" xmlns:xlink="http://www.w3.org/1999/xlink">
<g id="graph1" class="graph" transform="scale(1 1) rotate(0) translate(4 50)">
<title>proc~~initialize~~CallsGraph</title>
<polygon fill="white" stroke="white" points="-4,5 -4,-50 341,-50 341,5 -4,5"/>
<!-- proc~initialize -->
<g id="node1" class="node"><title>proc~initialize</title>
<polygon fill="none" stroke="black" points="54,-46 2.13163e-14,-46 0,-20 54,-20 54,-46"/>
<text text-anchor="middle" x="27" y="-30.55" font-family="Helvetica,sans-Serif" font-size="10.50">initialize</text>
</g>
<!-- proc~integer_to_string -->
<g id="node2" class="node"><title>proc~integer_to_string</title>
<a xlink:href="../proc/integer_to_string.html" xlink:title="integer_to_string">
<polygon fill="#d9534f" stroke="#d9534f" points="335,-46 243,-46 243,-20 335,-20 335,-46"/>
<text text-anchor="middle" x="289" y="-30.55" font-family="Helvetica,sans-Serif" font-size="10.50" fill="white">integer_to_string</text>
</a>
</g>
<!-- proc~initialize&#45;&gt;proc~integer_to_string -->
<g id="edge4" class="edge"><title>proc~initialize&#45;&gt;proc~integer_to_string</title>
<path fill="none" stroke="black" d="M54.2842,-34.0551C65.3657,-34.4343 78.2925,-34.8142 90,-35 141.549,-35.818 154.448,-35.621 206,-35 214.495,-34.8977 223.477,-34.7365 232.273,-34.5489"/>
<polygon fill="black" stroke="black" points="232.553,-38.0435 242.472,-34.3185 232.395,-31.0453 232.553,-38.0435"/>
</g>
<!-- proc~optional_int_to_string -->
<g id="node3" class="node"><title>proc~optional_int_to_string</title>
<a xlink:href="../proc/optional_int_to_string.html" xlink:title="optional_int_to_string">
<polygon fill="#d9534f" stroke="#d9534f" points="205,-26 91,-26 91,-1.24345e-14 205,-3.55271e-15 205,-26"/>
<text text-anchor="middle" x="148" y="-10.55" font-family="Helvetica,sans-Serif" font-size="10.50" fill="white">optional_int_to_string</text>
</a>
</g>
<!-- proc~initialize&#45;&gt;proc~optional_int_to_string -->
<g id="edge6" class="edge"><title>proc~initialize&#45;&gt;proc~optional_int_to_string</title>
<path fill="none" stroke="black" d="M54.1548,-28.5116C62.0348,-27.2091 71.0125,-25.7252 80.2184,-24.2036"/>
<polygon fill="black" stroke="black" points="80.9608,-27.6284 90.2562,-22.5444 79.8192,-20.7221 80.9608,-27.6284"/>
</g>
<!-- proc~optional_int_to_string&#45;&gt;proc~integer_to_string -->
<g id="edge2" class="edge"><title>proc~optional_int_to_string&#45;&gt;proc~integer_to_string</title>
<path fill="none" stroke="black" d="M205.757,-21.1925C214.503,-22.4331 223.52,-23.712 232.244,-24.9495"/>
<polygon fill="black" stroke="black" points="231.926,-28.4393 242.318,-26.3785 232.909,-21.5087 231.926,-28.4393"/>
</g>
</g>
</svg>
