<?xml version="1.0" encoding="UTF-8" standalone="no"?>
<!DOCTYPE svg PUBLIC "-//W3C//DTD SVG 1.1//EN"
 "http://www.w3.org/Graphics/SVG/1.1/DTD/svg11.dtd">
<!-- Generated by graphviz version 2.26.3 (20100126.1600)
 -->
<!-- Title: proc~~optional_int_to_string~~CallsGraph Pages: 1 -->
<svg width="254pt" height="34pt"
 viewBox="0.00 0.00 254.00 34.00" xmlns="http://www.w3.org/2000/svg" xmlns:xlink="http://www.w3.org/1999/xlink">
<g id="graph1" class="graph" transform="scale(1 1) rotate(0) translate(4 30)">
<title>proc~~optional_int_to_string~~CallsGraph</title>
<polygon fill="white" stroke="white" points="-4,5 -4,-30 251,-30 251,5 -4,5"/>
<!-- proc~optional_int_to_string -->
<g id="node1" class="node"><title>proc~optional_int_to_string</title>
<polygon fill="none" stroke="black" points="115,-26 1,-26 1,-1.24345e-14 115,-3.55271e-15 115,-26"/>
<text text-anchor="middle" x="58" y="-10.55" font-family="Helvetica,sans-Serif" font-size="10.50">optional_int_to_string</text>
</g>
<!-- proc~integer_to_string -->
<g id="node2" class="node"><title>proc~integer_to_string</title>
<a xlink:href="../proc/integer_to_string.html" xlink:title="integer_to_string">
<polygon fill="#d9534f" stroke="#d9534f" points="245,-26 153,-26 153,-1.24345e-14 245,-3.55271e-15 245,-26"/>
<text text-anchor="middle" x="199" y="-10.55" font-family="Helvetica,sans-Serif" font-size="10.50" fill="white">integer_to_string</text>
</a>
</g>
<!-- proc~optional_int_to_string&#45;&gt;proc~integer_to_string -->
<g id="edge2" class="edge"><title>proc~optional_int_to_string&#45;&gt;proc~integer_to_string</title>
<path fill="none" stroke="black" d="M115.757,-13C124.503,-13 133.52,-13 142.244,-13"/>
<polygon fill="black" stroke="black" points="142.318,-16.5001 152.318,-13 142.318,-9.5001 142.318,-16.5001"/>
</g>
</g>
</svg>
