<?xml version="1.0" encoding="UTF-8" standalone="no"?>
<!DOCTYPE svg PUBLIC "-//W3C//DTD SVG 1.1//EN"
 "http://www.w3.org/Graphics/SVG/1.1/DTD/svg11.dtd">
<!-- Generated by graphviz version 2.26.3 (20100126.1600)
 -->
<!-- Title: proc~~add_3d_plot~~CallsGraph Pages: 1 -->
<svg width="362pt" height="78pt"
 viewBox="0.00 0.00 362.00 78.00" xmlns="http://www.w3.org/2000/svg" xmlns:xlink="http://www.w3.org/1999/xlink">
<g id="graph1" class="graph" transform="scale(1 1) rotate(0) translate(4 74)">
<title>proc~~add_3d_plot~~CallsGraph</title>
<polygon fill="white" stroke="white" points="-4,5 -4,-74 359,-74 359,5 -4,5"/>
<!-- proc~add_3d_plot -->
<g id="node1" class="node"><title>proc~add_3d_plot</title>
<polygon fill="none" stroke="black" points="72,-48 2.84217e-14,-48 0,-22 72,-22 72,-48"/>
<text text-anchor="middle" x="36" y="-32.55" font-family="Helvetica,sans-Serif" font-size="10.50">add_3d_plot</text>
</g>
<!-- proc~vec_to_string -->
<g id="node2" class="node"><title>proc~vec_to_string</title>
<a xlink:href="../proc/vec_to_string.html" xlink:title="vec_to_string">
<polygon fill="#d9534f" stroke="#d9534f" points="204,-70 128,-70 128,-44 204,-44 204,-70"/>
<text text-anchor="middle" x="166" y="-54.55" font-family="Helvetica,sans-Serif" font-size="10.50" fill="white">vec_to_string</text>
</a>
</g>
<!-- proc~add_3d_plot&#45;&gt;proc~vec_to_string -->
<g id="edge4" class="edge"><title>proc~add_3d_plot&#45;&gt;proc~vec_to_string</title>
<path fill="none" stroke="black" d="M72.2122,-41.1282C86.2519,-43.5042 102.537,-46.2601 117.558,-48.8022"/>
<polygon fill="black" stroke="black" points="117.269,-52.3029 127.713,-50.5206 118.437,-45.401 117.269,-52.3029"/>
</g>
<!-- proc~optional_int_to_string -->
<g id="node3" class="node"><title>proc~optional_int_to_string</title>
<a xlink:href="../proc/optional_int_to_string.html" xlink:title="optional_int_to_string">
<polygon fill="#d9534f" stroke="#d9534f" points="223,-26 109,-26 109,-1.24345e-14 223,-3.55271e-15 223,-26"/>
<text text-anchor="middle" x="166" y="-10.55" font-family="Helvetica,sans-Serif" font-size="10.50" fill="white">optional_int_to_string</text>
</a>
</g>
<!-- proc~add_3d_plot&#45;&gt;proc~optional_int_to_string -->
<g id="edge6" class="edge"><title>proc~add_3d_plot&#45;&gt;proc~optional_int_to_string</title>
<path fill="none" stroke="black" d="M72.2122,-28.8718C80.2909,-27.5046 89.1131,-26.0116 98.0102,-24.506"/>
<polygon fill="black" stroke="black" points="98.7756,-27.9263 108.051,-22.8067 97.6075,-21.0244 98.7756,-27.9263"/>
</g>
<!-- proc~integer_to_string -->
<g id="node4" class="node"><title>proc~integer_to_string</title>
<a xlink:href="../proc/integer_to_string.html" xlink:title="integer_to_string">
<polygon fill="#d9534f" stroke="#d9534f" points="353,-26 261,-26 261,-1.24345e-14 353,-3.55271e-15 353,-26"/>
<text text-anchor="middle" x="307" y="-10.55" font-family="Helvetica,sans-Serif" font-size="10.50" fill="white">integer_to_string</text>
</a>
</g>
<!-- proc~optional_int_to_string&#45;&gt;proc~integer_to_string -->
<g id="edge2" class="edge"><title>proc~optional_int_to_string&#45;&gt;proc~integer_to_string</title>
<path fill="none" stroke="black" d="M223.757,-13C232.503,-13 241.52,-13 250.244,-13"/>
<polygon fill="black" stroke="black" points="250.318,-16.5001 260.318,-13 250.318,-9.5001 250.318,-16.5001"/>
</g>
</g>
</svg>
