<?xml version="1.0" encoding="UTF-8" standalone="no"?>
<!DOCTYPE svg PUBLIC "-//W3C//DTD SVG 1.1//EN"
 "http://www.w3.org/Graphics/SVG/1.1/DTD/svg11.dtd">
<!-- Generated by graphviz version 2.26.3 (20100126.1600)
 -->
<!-- Title: proc~~integer_to_string~~CalledByGraph Pages: 1 -->
<svg width="362pt" height="122pt"
 viewBox="0.00 0.00 362.00 122.00" xmlns="http://www.w3.org/2000/svg" xmlns:xlink="http://www.w3.org/1999/xlink">
<g id="graph1" class="graph" transform="scale(1 1) rotate(0) translate(4 118)">
<title>proc~~integer_to_string~~CalledByGraph</title>
<polygon fill="white" stroke="white" points="-4,5 -4,-118 359,-118 359,5 -4,5"/>
<!-- proc~integer_to_string -->
<g id="node1" class="node"><title>proc~integer_to_string</title>
<polygon fill="none" stroke="black" points="353,-92 261,-92 261,-66 353,-66 353,-92"/>
<text text-anchor="middle" x="307" y="-76.55" font-family="Helvetica,sans-Serif" font-size="10.50">integer_to_string</text>
</g>
<!-- proc~initialize -->
<g id="node2" class="node"><title>proc~initialize</title>
<a xlink:href="../proc/initialize.html" xlink:title="initialize">
<polygon fill="#d9534f" stroke="#d9534f" points="63,-114 9,-114 9,-88 63,-88 63,-114"/>
<text text-anchor="middle" x="36" y="-98.55" font-family="Helvetica,sans-Serif" font-size="10.50" fill="white">initialize</text>
</a>
</g>
<!-- proc~initialize&#45;&gt;proc~integer_to_string -->
<g id="edge8" class="edge"><title>proc~initialize&#45;&gt;proc~integer_to_string</title>
<path fill="none" stroke="black" d="M63.2253,-98.7898C106.783,-95.2538 193.056,-88.2501 250.399,-83.5949"/>
<polygon fill="black" stroke="black" points="250.715,-87.0809 260.399,-82.7831 250.149,-80.1038 250.715,-87.0809"/>
</g>
<!-- proc~optional_int_to_string -->
<g id="node3" class="node"><title>proc~optional_int_to_string</title>
<a xlink:href="../proc/optional_int_to_string.html" xlink:title="optional_int_to_string">
<polygon fill="#d9534f" stroke="#d9534f" points="223,-71 109,-71 109,-45 223,-45 223,-71"/>
<text text-anchor="middle" x="166" y="-55.55" font-family="Helvetica,sans-Serif" font-size="10.50" fill="white">optional_int_to_string</text>
</a>
</g>
<!-- proc~initialize&#45;&gt;proc~optional_int_to_string -->
<g id="edge2" class="edge"><title>proc~initialize&#45;&gt;proc~optional_int_to_string</title>
<path fill="none" stroke="black" d="M63.2523,-91.9858C78.7776,-86.8505 98.6996,-80.2609 116.862,-74.2534"/>
<polygon fill="black" stroke="black" points="118.053,-77.5459 126.448,-71.0825 115.855,-70.9 118.053,-77.5459"/>
</g>
<!-- proc~optional_int_to_string&#45;&gt;proc~integer_to_string -->
<g id="edge10" class="edge"><title>proc~optional_int_to_string&#45;&gt;proc~integer_to_string</title>
<path fill="none" stroke="black" d="M223.757,-66.6021C232.503,-67.9047 241.52,-69.2476 250.244,-70.547"/>
<polygon fill="black" stroke="black" points="249.912,-74.036 260.318,-72.0474 250.943,-67.1124 249.912,-74.036"/>
</g>
<!-- proc~add_3d_plot -->
<g id="node4" class="node"><title>proc~add_3d_plot</title>
<a xlink:href="../proc/add_3d_plot.html" xlink:title="add_3d_plot">
<polygon fill="#d9534f" stroke="#d9534f" points="72,-70 2.84217e-14,-70 0,-44 72,-44 72,-70"/>
<text text-anchor="middle" x="36" y="-54.55" font-family="Helvetica,sans-Serif" font-size="10.50" fill="white">add_3d_plot</text>
</a>
</g>
<!-- proc~add_3d_plot&#45;&gt;proc~optional_int_to_string -->
<g id="edge4" class="edge"><title>proc~add_3d_plot&#45;&gt;proc~optional_int_to_string</title>
<path fill="none" stroke="black" d="M72.2122,-57.2786C80.2909,-57.3407 89.1131,-57.4086 98.0102,-57.477"/>
<polygon fill="black" stroke="black" points="98.0247,-60.9771 108.051,-57.5542 98.0786,-53.9773 98.0247,-60.9771"/>
</g>
<!-- proc~add_plot -->
<g id="node5" class="node"><title>proc~add_plot</title>
<a xlink:href="../proc/add_plot.html" xlink:title="add_plot">
<polygon fill="#d9534f" stroke="#d9534f" points="63,-26 9,-26 9,-1.24345e-14 63,-3.55271e-15 63,-26"/>
<text text-anchor="middle" x="36" y="-10.55" font-family="Helvetica,sans-Serif" font-size="10.50" fill="white">add_plot</text>
</a>
</g>
<!-- proc~add_plot&#45;&gt;proc~optional_int_to_string -->
<g id="edge6" class="edge"><title>proc~add_plot&#45;&gt;proc~optional_int_to_string</title>
<path fill="none" stroke="black" d="M63.2523,-22.4335C79.3563,-28.008 100.191,-35.22 118.885,-41.6911"/>
<polygon fill="black" stroke="black" points="117.835,-45.0313 128.43,-44.995 120.125,-38.4164 117.835,-45.0313"/>
</g>
</g>
</svg>
